<?xml version="1.0" standalone="no"?>
<!DOCTYPE svg PUBLIC "-//W3C//DTD SVG 1.1//EN" "http://www.w3.org/Graphics/SVG/1.1/DTD/svg11.dtd" >
<svg xmlns="http://www.w3.org/2000/svg">
<metadata>Generated by IcoMoon</metadata>
<defs>
<font id="icomoon" horiz-adv-x="1024">
<font-face units-per-em="1024" ascent="960" descent="-64" />
<missing-glyph horiz-adv-x="1024" />
<glyph unicode="&#x20;" horiz-adv-x="512" d="" />
<glyph unicode="&#xe600;" glyph-name="twitter" horiz-adv-x="1008" d="M736.515 222.531v0h-225.469c0 0-109.513 3.221-109.513 106.293v119.177h334.983c61.199 0 109.513 51.536 109.513 112.734s-48.314 112.734-109.513 112.734v0h-334.983v119.177c-3.221 61.199-54.757 106.293-112.734 106.293s-109.513-45.093-112.734-106.293v0-467.043c25.768-325.319 322.099-331.762 322.099-331.762h238.353c61.199 0 109.513 51.536 109.513 112.734s-48.314 115.956-109.513 115.956z" />
<glyph unicode="&#xe601;" glyph-name="auto" d="M1024 477.257c-3.657 58.514-76.8 106.057-76.8 106.057s-117.029 230.4-142.629 256c-25.6 25.6-58.514 18.286-58.514 18.286h-457.143c0 0-36.571 3.657-62.171-21.943s-146.286-256-146.286-256-76.8-47.543-80.457-102.4c0-29.257 10.971-135.314 25.6-219.429 3.657-43.886 47.543-58.514 47.543-58.514v-95.086c0 0 0-40.229 51.2-40.229h58.514c0 0 40.229 3.657 40.229 36.571-3.657 36.571 0 91.429 0 91.429h585.143c0 0 0-58.514 0-91.429s40.229-32.914 40.229-32.914h54.857c47.543 0 47.543 40.229 47.543 40.229v95.086c0 0 43.886 14.629 51.2 54.857 10.971 84.114 21.943 190.171 21.943 219.429zM277.943 766.171c32.914 54.857 84.114 47.543 84.114 47.543h299.886c0 0 51.2 7.314 84.114-47.543 14.629-21.943 69.486-171.886 69.486-171.886h-610.743c0 0 58.514 149.943 73.143 171.886zM164.571 382.171c-36.571 0-65.829 29.257-65.829 65.829s29.257 65.829 65.829 65.829 65.829-29.257 65.829-65.829c0-36.571-29.257-65.829-65.829-65.829zM848.457 382.171c-36.571 0-65.829 29.257-65.829 65.829s29.257 65.829 65.829 65.829 65.829-29.257 65.829-65.829c0-36.571-29.257-65.829-65.829-65.829z" />
<glyph unicode="&#xe602;" glyph-name="avion" horiz-adv-x="1325" d="M1145.307 331.043l-394.374 300.34c-3.681 243.618-40.492 312.722-88.345 328.617h-3.681c-48.021-16.063-84.999-85.501-88.345-331.461l-390.693-297.495c0 0-54.881-40.157-14.557-69.438l412.612 133.856c7.027-99.89 16.397-190.076 29.95-254.661 3.681-29.281 7.362-73.119 3.681-98.719l-12.716-21.082-78.808-73.956c-14.557-7.362-11.043-11.043 0-11.043l142.557 25.6 142.557-25.6c11.043 0 14.557 3.681 7.362 11.043l-102.567 96.376c-3.514 29.281-3.346 75.796 3.848 93.867 13.386 64.586 22.923 158.787 29.95 259.514l416.293-135.027c40.157 28.946-14.724 69.271-14.724 69.271z" />
<glyph unicode="&#xe603;" glyph-name="autobus" d="M914.286 601.6c-10.971 117.029-40.229 234.057-84.114 285.257-95.086 98.743-533.943 98.743-629.029-3.657-43.886-47.543-73.143-160.914-84.114-277.943-7.314-69.486-14.629-522.971-14.629-522.971h58.514v-84.114c0 0 0-62.171 62.171-62.171 65.829 0 62.171 65.829 62.171 65.829v80.457h460.8v-80.457c0 0-3.657-65.829 62.171-65.829 62.171 0 62.171 62.171 62.171 62.171v80.457h58.514c0 3.657-7.314 457.143-14.629 522.971zM336.457 923.429h358.4c10.971 0 21.943-25.6 21.943-36.571s-10.971-36.571-21.943-36.571h-358.4c-10.971 0-21.943 25.6-21.943 36.571s10.971 36.571 21.943 36.571zM212.114 221.257c-32.914 0-58.514 25.6-58.514 58.514s25.6 58.514 58.514 58.514c32.914 0 58.514-25.6 58.514-58.514s-25.6-58.514-58.514-58.514zM808.229 221.257c-32.914 0-58.514 25.6-58.514 58.514s25.6 58.514 58.514 58.514c32.914 0 58.514-25.6 58.514-58.514s-25.6-58.514-58.514-58.514zM837.486 448c-51.2 0-592.457 0-643.657 0s-36.571 58.514-36.571 58.514 43.886 226.743 54.857 241.371c25.6 32.914 62.171 29.257 62.171 29.257h482.743c0 0 36.571 3.657 62.171-29.257 10.971-14.629 54.857-237.714 54.857-237.714s14.629-62.171-36.571-62.171z" />
<glyph unicode="&#xe604;" glyph-name="facebook" horiz-adv-x="585" d="M548 937.143v-150.857h-89.714q-49.143 0-66.286-20.571t-17.143-61.714v-108h167.429l-22.286-169.143h-145.143v-433.714h-174.857v433.714h-145.714v169.143h145.714v124.571q0 106.286 59.429 164.857t158.286 58.571q84 0 130.286-6.857z" />
<glyph unicode="&#xe605;" glyph-name="pinterest-p" horiz-adv-x="731" d="M0 618.857q0 61.714 21.429 116.286t59.143 95.143 86.857 70.286 105.714 44.571 115.429 14.857q90.286 0 168-38t126.286-110.571 48.571-164q0-54.857-10.857-107.429t-34.286-101.143-57.143-85.429-82.857-58.857-108-22q-38.857 0-77.143 18.286t-54.857 50.286q-5.714-22.286-16-64.286t-13.429-54.286-11.714-40.571-14.857-40.571-18.286-35.714-26.286-44.286-35.429-49.429l-8-2.857-5.143 5.714q-8.571 89.714-8.571 107.429 0 52.571 12.286 118t38 164.286 29.714 116q-18.286 37.143-18.286 96.571 0 47.429 29.714 89.143t75.429 41.714q34.857 0 54.286-23.143t19.429-58.571q0-37.714-25.143-109.143t-25.143-106.857q0-36 25.714-59.714t62.286-23.714q31.429 0 58.286 14.286t44.857 38.857 32 54.286 21.714 63.143 11.429 63.429 3.714 56.857q0 98.857-62.571 154t-163.143 55.143q-114.286 0-190.857-74t-76.571-187.714q0-25.143 7.143-48.571t15.429-37.143 15.429-26 7.143-17.429q0-16-8.571-41.714t-21.143-25.714q-1.143 0-9.714 1.714-29.143 8.571-51.714 32t-34.857 54-18.571 61.714-6.286 60.857z" />
<glyph unicode="&#xe607;" glyph-name="play-circulo" d="M502.857 886.857q119.429 0 220.286-58.857t159.714-159.714 58.857-220.286-58.857-220.286-159.714-159.714-220.286-58.857-220.286 58.857-159.714 159.714-58.857 220.286 58.857 220.286 159.714 159.714 220.286 58.857zM722.286 416.571q18.286 10.286 18.286 31.429t-18.286 31.429l-310.857 182.857q-17.714 10.857-36.571 0.571-18.286-10.857-18.286-32v-365.714q0-21.143 18.286-32 9.143-4.571 18.286-4.571 9.714 0 18.286 5.143z" />
<glyph unicode="&#xe608;" glyph-name="youtube" d="M193.723 898.062l750.104-450.062-750.104-450.062z" />
<glyph unicode="&#xe609;" glyph-name="hotel" d="M1005.714 407.771h-892.343v347.429c0 21.943-18.286 40.229-36.571 40.229h-40.229c-18.286 0-36.571-18.286-36.571-40.229v-618.057c0-21.943 18.286-40.229 36.571-40.229h36.571c21.943 0 36.571 18.286 36.571 40.229v106.057h800.914v-106.057c0-21.943 18.286-40.229 36.571-40.229h36.571c21.943 0 36.571 18.286 36.571 40.229v266.971h-14.629zM398.629 576c0-68.673-54.033-124.343-120.686-124.343s-120.686 55.67-120.686 124.343c0 68.673 54.033 124.343 120.686 124.343s120.686-55.67 120.686-124.343zM1024 502.857c0 69.486-54.857 128-124.343 128v0h-347.429c-51.2 0-95.086-43.886-95.086-95.086v-76.8h566.857v43.886z" />
<glyph unicode="&#xe60a;" glyph-name="atractivo" d="M193.829 791.771c43.886 0 80.457-32.914 84.114-73.143h-168.229c3.657 40.229 40.229 73.143 84.114 73.143v0zM607.086 572.343c-47.543 0-91.429-18.286-120.686-51.2s-51.2-73.143-51.2-120.686c0-47.543 18.286-91.429 51.2-120.686s73.143-51.2 120.686-51.2c47.543 0 91.429 18.286 120.686 51.2s51.2 73.143 51.2 120.686c0 47.543-18.286 91.429-51.2 120.686-29.257 29.257-73.143 51.2-120.686 51.2zM874.057 704h-32.914l-73.143 146.286h-310.857l-62.171-146.286h-303.543c-54.857 0-91.429-32.914-91.429-91.429v-449.829c0-58.514 36.571-117.029 91.429-117.029h811.886c58.514 0 117.029 58.514 117.029 117.029v449.829c3.657 58.514-87.771 91.429-146.286 91.429zM256 557.714h-109.714v73.143h109.714v-73.143zM782.629 221.257c-43.886-43.886-109.714-73.143-179.2-73.143s-131.657 29.257-179.2 73.143c-43.886 43.886-73.143 109.714-73.143 179.2s29.257 131.657 73.143 179.2c43.886 43.886 109.714 73.143 179.2 73.143s131.657-29.257 179.2-73.143c43.886-47.543 73.143-109.714 73.143-179.2 3.657-73.143-25.6-135.314-73.143-179.2z" />
<glyph unicode="&#xe60b;" glyph-name="restaurante" d="M782.629 623.543c-7.314 160.914-40.229 274.286-73.143 318.171-10.971 10.971-32.914 18.286-40.229 18.286s-21.943 3.657-29.257-7.314c-29.257-43.886-40.229-168.229-36.571-318.171v0-629.029c0-32.914 10.971-62.171 40.229-62.171s36.571 29.257 36.571 62.171c0 0 3.657 369.371 3.657 373.029 0 18.286 91.429 40.229 95.086 62.171 3.657 54.857 3.657 117.029 3.657 182.857zM504.686 927.086c0 14.629-10.971 25.6-25.6 25.6s-25.6-10.971-25.6-29.257v0-274.286c0-14.629-14.629-29.257-29.257-29.257s-29.257 10.971-29.257 29.257v0 0 277.943c0 14.629-10.971 25.6-25.6 25.6s-21.943-10.971-21.943-25.6v-277.943c0-14.629-14.629-29.257-29.257-29.257-14.629 3.657-25.6 14.629-25.6 29.257v277.943c0 14.629-10.971 29.257-25.6 29.257s-25.6-10.971-25.6-25.6c0 0 0 0 0 0v-314.514c3.657-54.857 43.886-98.743 91.429-120.686l-3.657-493.714c0-36.571 14.629-65.829 43.886-65.829s40.229 29.257 40.229 65.829v493.714c47.543 18.286 87.771 65.829 91.429 120.686 0 0 0 310.857 0 310.857z" />
<glyph unicode="&#xe60c;" glyph-name="calendario" d="M720.457 960h109.714v-219.429h-109.714v219.429zM208.457 960h109.714v-219.429h-109.714v219.429zM877.714 850.286v-146.286h-219.429v146.286h-292.571v-146.286h-219.429v146.286h-146.286v-914.286h1024v914.286h-146.286zM914.286 45.714h-804.571v512h804.571v-512z" />
<glyph unicode="&#xe60d;" glyph-name="mensaje-ficha" d="M947.2 813.714l-435.2-431.543-431.543 431.543zM1024 140.8l-332.8 332.8 332.8 329.143zM73.143 118.857l299.886 303.543 138.971-135.314 138.971 135.314 303.543-303.543zM0 802.743l332.8-332.8-332.8-332.8z" />
<glyph unicode="&#xe60e;" glyph-name="mensaje" d="M0 813.714v-694.857h1024v694.857h-1024zM914.286 777.143l-402.286-402.286-402.286 402.286h804.571zM987.429 162.743l-307.2 307.2 307.2 307.2v-614.4zM106.057 155.429l281.6 274.286 124.343-128 128 128 281.6-277.943h-815.543zM36.571 780.8l307.2-307.2-307.2-310.857v618.057z" />
<glyph unicode="&#xe60f;" glyph-name="telefono" d="M274.286 221.257c109.714-131.657 252.343-234.057 409.6-277.943 73.143-21.943 146.286 18.286 201.143 80.457-43.886 25.6-87.771 54.857-131.657 91.429-43.886 32.914-87.771 69.486-120.686 106.057-18.286-25.6-43.886-40.229-73.143-18.286-47.543 36.571-98.743 84.114-138.971 135.314l-18.286 21.943c-43.886 51.2-80.457 109.714-109.714 164.571-14.629 32.914 0 54.857 29.257 73.143-32.914 43.886-62.171 95.086-87.771 146.286s-51.2 102.4-69.486 149.943c-65.829-51.2-109.714-124.343-98.743-204.8 21.943-171.886 98.743-336.457 208.457-468.114v0zM384 846.629c-18.286 32.914-36.571 65.829-58.514 98.743s-73.143 14.629-113.371-14.629c18.286-47.543 40.229-102.4 65.829-153.6 29.257-54.857 58.514-102.4 87.771-142.629 40.229 29.257 80.457 65.829 65.829 106.057-14.629 32.914-32.914 69.486-47.543 106.057 0-3.657 0-3.657 0 0v0zM863.086 261.486c-29.257 21.943-62.171 43.886-91.429 62.171-36.571 21.943-76.8-14.629-106.057-54.857 32.914-36.571 76.8-73.143 120.686-109.714 43.886-32.914 91.429-65.829 135.314-91.429 29.257 40.229 54.857 87.771 25.6 117.029-25.6 29.257-51.2 51.2-84.114 76.8 0 0 0 0 0 0z" />
<glyph unicode="&#xe610;" glyph-name="search" d="M691.2 345.6c54.857 65.829 91.429 149.943 91.429 241.371 0 204.8-175.543 373.029-391.314 373.029s-391.314-168.229-391.314-373.029c0-208.457 175.543-373.029 391.314-373.029 91.429 0 171.886 29.257 241.371 80.457 18.286-29.257 248.686-413.257 358.4-343.771 149.943 84.114-252.343 362.057-299.886 394.971zM391.314 272.457c-182.857 0-329.143 138.971-329.143 314.514 0 171.886 149.943 314.514 329.143 314.514 182.857 0 329.143-138.971 329.143-314.514s-146.286-314.514-329.143-314.514z" />
<glyph unicode="&#xe611;" glyph-name="play" d="M903.314 444.343c0 21.943-10.971 40.229-29.257 51.2l-632.686 449.829c-10.971 7.314-29.257 14.629-47.543 14.629-36.571 0-69.486-29.257-73.143-65.829v0-881.371c0 0 0 0 0-3.657 0-40.229 32.914-73.143 73.143-73.143 14.629 0 29.257 3.657 40.229 10.971v0l632.686 442.514c21.943 10.971 36.571 29.257 36.571 54.857z" />
<glyph unicode="&#xe612;" glyph-name="flecha-arriba" d="M1024 93.257l-512 709.486-512-709.486z" />
<glyph unicode="&#xe613;" glyph-name="flecha-derecha" d="M157.257-64l709.486 512-709.486 512z" />
<glyph unicode="&#xe614;" glyph-name="flecha-abajo" d="M0 802.743l512-709.486 512 709.486z" />
<glyph unicode="&#xe615;" glyph-name="flecha-izquierda" d="M866.743 960l-709.486-512 709.486-512z" />
<glyph unicode="&#xe616;" glyph-name="flecha-c-arriba" d="M73.143 177.371l438.857 398.629 438.857-398.629 73.143 73.143-512 468.114-512-468.114z" />
<glyph unicode="&#xe617;" glyph-name="flecha-c-derecha" d="M241.371 886.857l398.629-438.857-398.629-438.857 73.143-73.143 468.114 512-468.114 512z" />
<glyph unicode="&#xe618;" glyph-name="flecha-c-abajo" d="M950.857 718.629l-438.857-398.629-438.857 398.629-73.143-73.143 512-468.114 512 468.114z" />
<glyph unicode="&#xe619;" glyph-name="flecha-c-izquierda" d="M782.629 9.143l-398.629 438.857 398.629 438.857-73.143 73.143-468.114-512 468.114-512z" />
<glyph unicode="&#xe61a;" glyph-name="ver-arriba" d="M106.057 448c-14.629 0-25.6 3.657-36.571 14.629-21.943 21.943-21.943 54.857 0 73.143l405.943 409.6c7.314 7.314 21.943 14.629 36.571 14.629 0 0 0 0 0 0 14.629 0 25.6-7.314 36.571-14.629l405.943-405.943c21.943-21.943 21.943-54.857 0-73.143-21.943-21.943-54.857-21.943-73.143 0l-369.371 365.714-369.371-365.714c-10.971-10.971-21.943-18.286-36.571-18.286zM512-64c-29.257 0-51.2 21.943-51.2 51.2v903.314c0 29.257 21.943 51.2 51.2 51.2s51.2-21.943 51.2-51.2v-899.657c0-32.914-21.943-54.857-51.2-54.857z" />
<glyph unicode="&#xe61b;" glyph-name="diamante" d="M288.914 623.543l223.086-680.229 223.086 680.229zM446.171-56.686l-446.171 680.229h223.086zM577.829-56.686l446.171 680.229h-223.086zM793.6 960h-563.2l-230.4-256h1024z" />
<glyph unicode="&#xe61c;" glyph-name="estrella" d="M976.457 568.686l-288.914-241.371 109.714-391.314-285.257 241.371-288.914-241.371 109.714 391.314-285.257 241.371h354.743l109.714 391.314 109.714-391.314h354.743z" />
<glyph unicode="&#xe61d;" glyph-name="location" d="M819.2 652.8c0-69.486-40.229-138.971-91.429-226.743-69.486-117.029-157.257-237.714-190.171-468.114 0-14.629-14.629-21.943-25.6-21.943-14.629 0-25.6 10.971-25.6 21.943-32.914 230.4-120.686 347.429-190.171 468.114-51.2 87.771-91.429 153.6-91.429 226.743 0 168.229 138.971 307.2 307.2 307.2s307.2-138.971 307.2-307.2zM504.686 769.829c-69.486 0-128-54.857-128-128 0-69.486 54.857-128 128-128s128 54.857 128 128c-3.657 73.143-58.514 128-128 128z" />
<glyph unicode="&#xe61e;" glyph-name="desde" d="M160.914 272.457c-3.657-10.971-10.971-25.6-21.943-40.229-7.314-7.314-10.971-10.971-18.286-14.629s-14.629-7.314-21.943-10.971c-7.314-3.657-14.629-3.657-18.286-3.657-7.314 0-10.971 0-14.629 0h-43.886c-3.657 0-7.314 0-10.971 0s-3.657 0-7.314 3.657-3.657 3.657-3.657 7.314 0 7.314 0 7.314v453.486c0 3.657 0 7.314 0 10.971s0 7.314 3.657 7.314 7.314 3.657 7.314 3.657 7.314 0 7.314 0h43.886c10.971 0 21.943 0 36.571-3.657s25.6-10.971 36.571-18.286c10.971-10.971 18.286-21.943 21.943-32.914 3.657-14.629 3.657-25.6 3.657-40.229v-299.886c3.657-10.971 0-18.286 0-29.257zM117.029 597.943c0 7.314 0 14.629-3.657 21.943 0 3.657-3.657 10.971-10.971 18.286-3.657 3.657-7.314 7.314-10.971 7.314s-10.971 3.657-21.943 3.657c-7.314 0-10.971 0-14.629 0s-7.314-3.657-7.314-3.657c0-3.657 0-3.657 0-7.314 0 0 0-3.657 0-7.314v-362.057c0-3.657 0-7.314 0-10.971s0-7.314 3.657-7.314c0 0 3.657-3.657 7.314-3.657s7.314 0 7.314 0 10.971 0 18.286 3.657c7.314 3.657 14.629 7.314 21.943 10.971 7.314 7.314 10.971 14.629 10.971 21.943s0 10.971 0 18.286v296.229zM380.343 206.629c0-3.657-3.657-3.657-7.314-3.657h-106.057c-7.314 0-10.971 0-18.286 0s-10.971 0-10.971 3.657-3.657 7.314-3.657 10.971c0 3.657 0 10.971 0 14.629v442.514c0 3.657 0 7.314 0 10.971 0 0 3.657 3.657 3.657 7.314 3.657 3.657 3.657 3.657 7.314 3.657s3.657 0 10.971 0h117.029c3.657 0 7.314-3.657 7.314-7.314s0-7.314 0-14.629c0-7.314 0-10.971 0-14.629s-3.657-3.657-7.314-3.657h-73.143c-3.657 0-7.314 0-10.971 0s-7.314 0-7.314-3.657c0-3.657 0-7.314 0-7.314s0-3.657 0-7.314v-135.314c0-3.657 0-7.314 0-10.971s0-7.314 3.657-7.314c3.657 0 3.657-3.657 7.314-3.657s7.314 0 7.314 0h32.914c3.657 0 7.314 0 7.314-3.657s0-7.314 0-14.629c0-7.314 0-10.971 0-14.629s-3.657-3.657-7.314-3.657h-29.257c-3.657 0-7.314 0-10.971 0s-7.314 0-7.314 0c-3.657-3.657-3.657-3.657-3.657-7.314s0-7.314 0-10.971v-149.943c0-3.657 0-10.971 0-14.629s0-7.314 3.657-10.971c3.657 0 3.657 0 7.314-3.657 3.657 0 7.314 0 10.971 0h65.829c3.657 0 7.314 0 7.314-3.657s0-7.314 0-14.629 3.657-21.943 3.657-21.943zM577.829 250.514c-3.657-10.971-10.971-18.286-18.286-25.6s-14.629-14.629-25.6-18.286c-10.971-3.657-21.943-7.314-32.914-7.314-21.943 0-43.886 7.314-58.514 18.286-14.629 14.629-21.943 32.914-21.943 62.171v40.229c0 3.657 0 7.314 3.657 7.314s10.971 0 18.286 0c7.314 0 14.629 0 18.286 0s7.314-3.657 7.314-7.314v-40.229c0-7.314 3.657-18.286 7.314-25.6s14.629-10.971 25.6-10.971c7.314 0 14.629 0 18.286 3.657s7.314 7.314 10.971 10.971c3.657 3.657 3.657 7.314 3.657 10.971s0 7.314 0 14.629v43.886c0 18.286-7.314 36.571-18.286 58.514-10.971 18.286-25.6 40.229-40.229 58.514-7.314 10.971-14.629 21.943-21.943 32.914s-14.629 21.943-18.286 32.914c-7.314 10.971-10.971 21.943-14.629 32.914s-7.314 21.943-7.314 32.914v36.571c0 7.314 0 18.286 3.657 29.257 10.971 7.314 14.629 18.286 21.943 25.6s14.629 14.629 25.6 18.286c10.971 3.657 21.943 7.314 36.571 7.314s25.6-3.657 36.571-7.314c10.971-7.314 18.286-10.971 25.6-21.943 7.314-7.314 10.971-18.286 14.629-25.6 3.657-10.971 3.657-18.286 3.657-29.257v-32.914c0-3.657-3.657-3.657-7.314-3.657s-10.971 0-18.286 0c-7.314 0-10.971 0-14.629 0s-7.314 3.657-7.314 7.314v32.914c0 10.971-3.657 21.943-10.971 29.257s-14.629 10.971-21.943 10.971c-10.971 0-18.286-3.657-25.6-10.971s-10.971-14.629-10.971-25.6v-40.229c0-14.629 7.314-29.257 18.286-47.543s21.943-36.571 36.571-54.857c7.314-10.971 14.629-21.943 21.943-32.914s14.629-21.943 21.943-36.571c7.314-10.971 10.971-25.6 14.629-36.571s7.314-25.6 7.314-40.229v-47.543c0-7.314-3.657-18.286-7.314-29.257zM804.571 272.457c-3.657-10.971-10.971-25.6-21.943-40.229-7.314-7.314-10.971-10.971-18.286-14.629s-14.629-7.314-21.943-10.971c-7.314-3.657-14.629-3.657-18.286-3.657-7.314 0-10.971 0-14.629 0h-43.886c-3.657 0-7.314 0-10.971 0s-3.657 0-7.314 3.657-3.657 3.657-3.657 7.314 0 7.314 0 7.314v453.486c0 3.657 0 7.314 0 10.971s0 7.314 3.657 7.314 7.314 3.657 7.314 3.657 7.314 0 7.314 0h43.886c10.971 0 21.943 0 36.571-3.657s25.6-10.971 36.571-18.286c10.971-10.971 18.286-21.943 21.943-32.914 3.657-14.629 3.657-25.6 3.657-40.229v-299.886c3.657-10.971 0-18.286 0-29.257zM760.686 597.943c0 7.314 0 14.629-3.657 21.943 0 7.314-7.314 10.971-10.971 18.286-3.657 3.657-7.314 7.314-10.971 7.314s-10.971 3.657-21.943 3.657c-7.314 0-10.971 0-14.629 0s-7.314-3.657-7.314-3.657c0-3.657 0-3.657 0-7.314s0-3.657 0-7.314v-362.057c0-3.657 0-7.314 0-10.971s0-7.314 3.657-7.314c0 0 3.657-3.657 7.314-3.657s7.314 0 7.314 0 10.971 0 18.286 3.657c7.314 3.657 14.629 7.314 21.943 10.971 7.314 7.314 10.971 14.629 10.971 21.943s0 10.971 0 18.286v296.229zM1024 206.629c0-3.657-3.657-3.657-7.314-3.657h-106.057c-7.314 0-10.971 0-18.286 0-3.657 0-10.971 0-10.971 3.657-3.657 0-3.657 3.657-3.657 7.314s0 10.971 0 14.629v446.171c0 3.657 0 7.314 0 10.971 0 0 3.657 3.657 3.657 7.314 3.657 3.657 3.657 3.657 7.314 3.657s3.657 0 10.971 0h117.029c3.657 0 7.314-3.657 7.314-7.314s0-7.314 0-14.629c0-7.314 0-10.971 0-14.629s-3.657-3.657-7.314-3.657h-69.486c-3.657 0-7.314 0-10.971 0s-7.314 0-7.314-3.657-3.657-3.657-3.657-3.657 0-3.657 0-7.314v-135.314c0-3.657 0-7.314 0-10.971s0-7.314 3.657-7.314 3.657-3.657 7.314-3.657 7.314 0 7.314 0h32.914c3.657 0 7.314 0 7.314-3.657s0-7.314 0-14.629c0-7.314 0-10.971 0-14.629s-3.657-3.657-7.314-3.657h-32.914c-3.657 0-7.314 0-10.971 0s-7.314 0-7.314 0c-3.657-3.657-3.657-3.657-3.657-7.314s0-7.314 0-10.971v-149.943c0-3.657 0-10.971 0-14.629s0-7.314 3.657-10.971c3.657 0 3.657 0 7.314-3.657 3.657 0 7.314 0 10.971 0h65.829c3.657 0 7.314 0 7.314-3.657s0-7.314 0-14.629 7.314-25.6 7.314-25.6z" />
<glyph unicode="&#xe61f;" glyph-name="pesos" d="M486.4 49.371c-58.514 3.657-113.371 18.286-164.571 47.543-65.829 43.886-95.086 117.029-95.086 219.429h149.943c0-32.914 7.314-65.829 21.943-95.086 18.286-29.257 51.2-47.543 87.771-47.543v237.714l-43.886 14.629c-58.514 14.629-109.714 43.886-149.943 87.771-29.257 40.229-43.886 87.771-43.886 135.314 0 32.914 3.657 65.829 18.286 95.086 25.6 62.171 73.143 109.714 135.314 128 29.257 7.314 58.514 14.629 87.771 14.629h54.857c51.2-3.657 98.743-18.286 142.629-47.543 65.829-43.886 102.4-117.029 98.743-193.829h-146.286c0 25.6-7.314 51.2-18.286 73.143-14.629 29.257-43.886 43.886-76.8 43.886v-215.771c62.171-18.286 120.686-47.543 175.543-80.457 51.2-40.229 76.8-102.4 76.8-164.571 7.314-84.114-32.914-160.914-102.4-204.8-43.886-25.6-98.743-43.886-149.943-47.543h-58.514zM486.4 758.857c-25.6 0-54.857-7.314-73.143-25.6-14.629-18.286-25.6-43.886-21.943-65.829 0-29.257 14.629-54.857 36.571-73.143 18.286-10.971 40.229-21.943 62.171-29.257l-3.657 193.829zM541.257 173.714c21.943 0 43.886 7.314 62.171 18.286 25.6 21.943 40.229 54.857 36.571 87.771 0 29.257-10.971 58.514-32.914 76.8-21.943 14.629-43.886 25.6-65.829 32.914v-215.771zM468.114 960h87.771v-1024h-87.771v1024z" />
<glyph unicode="&#xe620;" glyph-name="ecoalojamiento" d="M830.171 323.657c-10.971-131.657-117.029-256-252.343-270.629-7.314 0-25.6 0-43.886-3.657 0-29.257 3.657-58.514 7.314-84.114 3.657-10.971 0-25.6-14.629-29.257h-25.6c-10.971 3.657-18.286 14.629-18.286 25.6 0 29.257 3.657 54.857 10.971 84.114v3.657c-149.943 21.943-270.629 124.343-296.229 277.943-25.6 149.943 58.514 270.629 153.6 380.343 47.543 54.857 171.886 168.229 153.6 252.343l54.857-109.714c47.543-87.771 117.029-138.971 168.229-204.8 65.829-91.429 113.371-201.143 102.4-321.829zM544.914 283.429c-3.657-3.657-7.314-7.314-14.629-7.314 0 10.971 0 18.286 0 29.257 0 25.6 0 51.2 0 76.8 54.857 40.229 73.143 84.114 102.4 171.886-29.257-43.886-58.514-84.114-102.4-124.343 0 40.229-3.657 80.457-3.657 113.371-3.657 47.543-7.314 87.771-10.971 149.943l-3.657 73.143c0-62.171-7.314-142.629-7.314-182.857-3.657-47.543-7.314-98.743-7.314-157.257-47.543 40.229-76.8 84.114-106.057 128 29.257-87.771 51.2-131.657 106.057-171.886 0-25.6 0-51.2 0-80.457 0-7.314 0-18.286 0-25.6-3.657 3.657-10.971 7.314-14.629 10.971-51.2 36.571-87.771 73.143-120.686 117.029 40.229-84.114 65.829-124.343 124.343-160.914 3.657-3.657 7.314-3.657 10.971-7.314 3.657-76.8 10.971-128 18.286-138.971 0 3.657 3.657 3.657 3.657 7.314 7.314 7.314 10.971 62.171 14.629 128 3.657 0 7.314 3.657 10.971 3.657 62.171 36.571 84.114 73.143 124.343 160.914-40.229-36.571-73.143-76.8-124.343-113.371z" />
<glyph unicode="&#xe621;" glyph-name="pet-friendly" d="M230.4 298.057c-69.486-29.257-157.257 32.914-204.8 138.971s-25.6 212.114 40.229 241.371c65.829 29.257 157.257-32.914 204.8-138.971s25.6-215.771-40.229-241.371zM822.857 254.171c-69.486 21.943-98.743 128-65.829 234.057 32.914 109.714 117.029 179.2 186.514 160.914s98.743-128 65.829-234.057c-32.914-109.714-117.029-182.857-186.514-160.914zM405.943 546.743c-73.143-10.971-146.286 69.486-164.571 182.857s21.943 212.114 95.086 223.086c73.143 10.971 146.286-69.486 164.571-182.857 18.286-109.714-21.943-208.457-95.086-223.086zM643.657 550.4c-69.486 10.971-113.371 109.714-95.086 223.086s91.429 193.829 160.914 182.857 113.371-109.714 95.086-223.086c-18.286-113.371-87.771-193.829-160.914-182.857zM815.543 31.086c-14.629 73.143-51.2 204.8-190.171 340.114-47.543 47.543-87.771 65.829-128 73.143h-7.314c-40.229-3.657-80.457-25.6-128-73.143-138.971-135.314-175.543-266.971-190.171-340.114-21.943-98.743 58.514-95.086 87.771-95.086 109.714 0 179.2 43.886 223.086 47.543 3.657 0 14.629 0 14.629 0 7.314 0 10.971 0 14.629 0 43.886-3.657 98.743-47.543 219.429-47.543 25.6 0 106.057-3.657 84.114 95.086z" />
<glyph unicode="&#xe622;" glyph-name="spa" d="M815.543 649.143c-120.686-25.6-171.886-58.514-190.171-73.143 10.971 18.286 40.229 76.8 58.514 215.771 25.6 219.429-358.4 230.4-329.143 0 18.286-138.971 43.886-201.143 54.857-223.086-18.286 18.286-65.829 54.857-175.543 98.743-245.029 95.086-321.829-285.257-106.057-310.857 106.057-14.629 168.229-7.314 201.143 0-25.6-18.286-73.143-51.2-146.286-131.657-179.2-197.486 149.943-405.943 256-208.457 43.886 80.457 58.514 135.314 62.171 171.886 7.314-32.914 21.943-91.429 65.829-171.886 102.4-197.486 431.543 10.971 256 208.457-109.714 124.343-168.229 135.314-168.229 135.314l-10.971 7.314c7.314-3.657 62.171-36.571 230.4-43.886 219.429-7.314 197.486 384-58.514 325.486zM691.2 400.457c-40.229 0-73.143 3.657-95.086 7.314 0-7.314-3.657-18.286-7.314-25.6 14.629-7.314 47.543-32.914 91.429-87.771 62.171-84.114-98.743-164.571-128-69.486-21.943 65.829-21.943 98.743-21.943 113.371-7.314 0-14.629-3.657-21.943-3.657-3.657 0-7.314 0-10.971 0 0-14.629-7.314-54.857-36.571-109.714-47.543-91.429-201.143 0-120.686 84.114 36.571 40.229 69.486 58.514 87.771 65.829-7.314 10.971-10.971 21.943-10.971 36.571-18.286-3.657-47.543-10.971-87.771-7.314-106.057 0-91.429 179.2 21.943 146.286 65.829-18.286 95.086-47.543 106.057-54.857 3.657 3.657 10.971 7.314 18.286 7.314-7.314 14.629-25.6 51.2-36.571 120.686-14.629 102.4 168.229 98.743 146.286 0-14.629-80.457-32.914-109.714-40.229-120.686 7.314-3.657 10.971-7.314 18.286-10.971 14.629 10.971 43.886 32.914 98.743 54.857 95.086 32.914 131.657-146.286 29.257-146.286zM566.857 422.4c0-26.257-27.835-47.543-62.171-47.543s-62.171 21.286-62.171 47.543c0 26.257 27.835 47.543 62.171 47.543s62.171-21.286 62.171-47.543z" />
<glyph unicode="&#xe623;" glyph-name="w" horiz-adv-x="1325" d="M1168 448c0-281.6-230.4-512-512-512s-512 230.4-512 512 230.4 512 512 512 512-230.4 512-512zM941.257 645.486h-73.143l-95.086-299.886-113.371 299.886h-18.286l-109.714-299.886-84.114 299.886h-76.8l146.286-464.457h18.286l120.686 310.857 120.686-310.857h18.286l146.286 464.457z" />
<glyph unicode="&#xe624;" glyph-name="ver-derecha" d="M512 853.943c0 14.629 3.657 25.6 14.629 36.571 21.943 21.943 54.857 21.943 73.143 0l409.6-405.943c10.971-10.971 14.629-21.943 14.629-36.571 0 0 0 0 0 0 0-14.629-7.314-25.6-14.629-36.571l-405.943-405.943c-21.943-21.943-54.857-21.943-73.143 0-21.943 21.943-21.943 54.857 0 73.143l365.714 369.371-365.714 369.371c-10.971 10.971-18.286 21.943-18.286 36.571zM0 448c0 29.257 21.943 51.2 51.2 51.2h899.657c29.257 0 51.2-21.943 51.2-51.2s-21.943-51.2-51.2-51.2h-899.657c-29.257 0-51.2 21.943-51.2 51.2z" />
<glyph unicode="&#xe625;" glyph-name="ver-izquierda" d="M512 42.057c0-14.629-3.657-25.6-14.629-36.571-21.943-21.943-54.857-21.943-73.143 0l-409.6 405.943c-7.314 7.314-14.629 21.943-14.629 36.571 0 0 0 0 0 0 0 14.629 7.314 25.6 14.629 36.571l405.943 405.943c21.943 21.943 54.857 21.943 73.143 0 21.943-21.943 21.943-54.857 0-73.143l-365.714-369.371 369.371-369.371c7.314-10.971 14.629-21.943 14.629-36.571zM1024 448c0-29.257-21.943-51.2-51.2-51.2h-903.314c-29.257 0-51.2 21.943-51.2 51.2s21.943 51.2 51.2 51.2h899.657c32.914 0 54.857-21.943 54.857-51.2z" />
<glyph unicode="&#xe626;" glyph-name="ver-abajo" d="M917.943 448c14.629 0 25.6-3.657 36.571-14.629 21.943-21.943 21.943-54.857 0-73.143l-405.943-409.6c-10.971-10.971-21.943-14.629-36.571-14.629 0 0 0 0 0 0-14.629 0-25.6 7.314-36.571 14.629l-405.943 405.943c-21.943 21.943-21.943 54.857 0 73.143 21.943 21.943 54.857 21.943 73.143 0l369.371-365.714 369.371 369.371c10.971 7.314 21.943 14.629 36.571 14.629zM512 960c29.257 0 51.2-21.943 51.2-51.2v-899.657c0-29.257-21.943-51.2-51.2-51.2s-51.2 21.943-51.2 51.2v899.657c0 29.257 21.943 51.2 51.2 51.2z" />
<glyph unicode="&#xe627;" glyph-name="from" d="M230.4 660.114c0-3.657-3.657-3.657-10.971-3.657h-69.486c-3.657 0-7.314 0-7.314 0-3.657 0-3.657 0-7.314 0 0-3.657-3.657-10.971-3.657-14.629s0-10.971 0-14.629v-131.657c0-3.657 0-7.314 0-10.971s0-3.657 3.657-7.314 3.657-3.657 7.314-3.657 7.314 0 7.314 0c7.314 0 10.971 0 21.943 0 7.314 0 14.629 0 18.286 0 7.314 0 10.971 0 10.971-3.657s3.657-7.314 3.657-14.629c0-7.314 0-14.629-3.657-18.286 0-3.657-3.657-3.657-10.971-3.657-3.657 0-7.314 0-14.629 0s-14.629 0-21.943 0c-3.657 0-7.314 0-10.971 0s-7.314 0-7.314 0c-3.657-3.657-3.657-7.314-3.657-10.971s0-10.971 0-14.629v-190.171c0-3.657-3.657-7.314-7.314-7.314s-10.971 0-18.286 0c-7.314 0-14.629 0-18.286 0s-3.657 3.657-3.657 7.314v453.486c0 3.657 0 7.314 0 10.971s0 3.657 3.657 7.314 3.657 3.657 7.314 3.657c0 0 3.657 0 7.314 0h120.686c3.657 0 7.314 0 7.314-3.657s0-7.314 0-14.629c0-7.314 0-14.629 0-14.629zM442.514 202.971c-3.657 0-10.971 0-18.286 0s-14.629 0-18.286 0c-3.657 0-3.657 3.657-3.657 7.314v179.2c0 14.629-3.657 25.6-10.971 32.914s-14.629 10.971-21.943 10.971c-14.629 0-25.6 0-29.257 0s-7.314-3.657-7.314-10.971v-215.771c0-7.314 0-7.314-3.657-10.971-3.657 0-10.971 0-21.943 0-7.314 0-14.629 0-18.286 0s-3.657 3.657-3.657 7.314v471.771c0 3.657 0 7.314 0 10.971s3.657 7.314 3.657 7.314c3.657 0 7.314 3.657 7.314 3.657 3.657 0 3.657 0 7.314 0h40.229c10.971 0 21.943 0 36.571-3.657s25.6-10.971 36.571-18.286c10.971-10.971 18.286-21.943 21.943-36.571s3.657-25.6 3.657-40.229v-62.171c0-7.314 0-14.629 0-21.943s-3.657-14.629-7.314-21.943c-3.657-3.657-7.314-10.971-10.971-10.971-3.657-3.657-7.314-7.314-10.971-7.314-3.657-3.657-7.314-3.657-7.314-3.657-3.657 0-3.657-3.657-3.657-3.657s0-3.657 3.657-3.657c3.657 0 7.314-3.657 10.971-3.657 3.657-3.657 7.314-3.657 10.971-7.314s7.314-7.314 10.971-10.971c3.657-7.314 7.314-14.629 7.314-21.943s0-14.629 0-21.943v-175.543c0-14.629 0-18.286-3.657-18.286zM398.629 597.943c0 7.314 0 14.629-3.657 21.943 0 7.314-7.314 14.629-10.971 18.286s-7.314 7.314-10.971 7.314c-3.657 0-10.971 3.657-25.6 3.657-3.657 0-7.314 0-7.314 0-3.657 0-3.657-3.657-7.314-3.657 0-3.657 0-3.657 0-7.314s0-3.657 0-7.314v-131.657c0-3.657 0-7.314 0-10.971s0-7.314 3.657-7.314 3.657-3.657 7.314-3.657 3.657 0 7.314 0 10.971 0 18.286 3.657c7.314 3.657 14.629 7.314 21.943 10.971 7.314 7.314 10.971 14.629 10.971 21.943s0 10.971 0 18.286v65.829zM676.571 254.171c-3.657-10.971-7.314-21.943-14.629-29.257s-14.629-14.629-25.6-18.286c-10.971-3.657-21.943-7.314-40.229-7.314-14.629 0-25.6 3.657-36.571 7.314s-18.286 10.971-25.6 18.286c-7.314 7.314-10.971 18.286-14.629 29.257s-3.657 21.943-3.657 32.914v321.829c0 25.6 7.314 47.543 21.943 62.171s36.571 21.943 58.514 21.943c21.943 0 43.886-7.314 58.514-25.6 14.629-14.629 21.943-36.571 21.943-62.171v-318.171c3.657-10.971 0-21.943 0-32.914zM632.686 608.914c0 10.971-3.657 18.286-10.971 29.257s-14.629 14.629-25.6 14.629c-10.971 0-18.286-3.657-25.6-14.629-7.314-7.314-10.971-18.286-10.971-29.257v-318.171c0-3.657 0-10.971 0-14.629s3.657-10.971 3.657-14.629c3.657-3.657 7.314-7.314 10.971-10.971s10.971-3.657 18.286-3.657 21.943 3.657 29.257 14.629c3.657 10.971 7.314 18.286 7.314 29.257v318.171zM936.229 202.971c-3.657 0-7.314-3.657-18.286-3.657s-14.629 0-18.286 3.657c-3.657 0-3.657 3.657-3.657 10.971v245.029c0 7.314 0 14.629 0 21.943s0 14.629 0 21.943c0 7.314 0 14.629 0 18.286s0 7.314-3.657 7.314c-3.657 0-3.657 0-3.657-3.657s-3.657-3.657-3.657-7.314c-3.657-10.971-3.657-18.286-7.314-25.6s-3.657-14.629-7.314-21.943c-3.657-7.314-3.657-14.629-7.314-21.943s-3.657-14.629-7.314-25.6c0-3.657-3.657-3.657-3.657-7.314s-3.657-3.657-7.314-3.657c-3.657 0-7.314 0-7.314 3.657s-3.657 3.657-3.657 7.314c-3.657 7.314-3.657 14.629-7.314 21.943 0 7.314-3.657 14.629-3.657 21.943-3.657 7.314-3.657 14.629-7.314 21.943s-3.657 14.629-7.314 25.6c0 3.657-3.657 3.657-3.657 7.314s-3.657 3.657-7.314 3.657c0 0 0-3.657-3.657-7.314s0-10.971 0-18.286c0-7.314 0-14.629 0-21.943s0-14.629 0-21.943v-245.029c0-7.314 0-10.971-3.657-10.971s-7.314-3.657-18.286-3.657c-10.971 0-14.629 0-18.286 3.657-3.657 0-3.657 3.657-3.657 10.971v475.429c0 7.314 0 7.314 3.657 10.971 3.657 0 7.314 0 14.629 0 3.657 0 7.314 0 10.971 0s3.657-3.657 7.314-3.657 3.657-7.314 7.314-10.971c3.657-3.657 3.657-10.971 7.314-21.943 7.314-21.943 14.629-43.886 18.286-58.514 7.314-18.286 10.971-36.571 18.286-54.857 0-3.657 3.657-3.657 3.657-3.657s3.657-3.657 3.657-3.657c3.657 0 3.657 0 3.657 3.657 0 0 3.657 3.657 3.657 3.657 3.657 10.971 7.314 21.943 10.971 29.257s7.314 18.286 7.314 25.6c3.657 7.314 7.314 18.286 7.314 25.6 3.657 7.314 7.314 18.286 10.971 32.914 3.657 7.314 3.657 14.629 7.314 21.943 0 3.657 3.657 10.971 3.657 10.971 3.657 3.657 3.657 3.657 7.314 7.314 3.657 0 3.657 0 10.971 0s14.629 0 18.286 0c3.657 0 3.657-3.657 3.657-10.971v-471.771c0-10.971 0-14.629-3.657-14.629z" />
<glyph unicode="&#xe628;" glyph-name="interrogacion" d="M705.829 561.371c-14.629-29.257-40.229-58.514-69.486-87.771-18.286-18.286-32.914-32.914-40.229-54.857-7.314-18.286-14.629-40.229-18.286-62.171s-3.657-43.886-3.657-69.486c0-25.6 0-51.2 0-76.8 0-10.971-3.657-14.629-10.971-18.286-10.971 0-25.6 0-54.857 0-25.6 0-40.229 0-47.543 3.657-7.314 0-10.971 7.314-10.971 18.286 0 32.914 0 65.829 3.657 95.086 0 29.257 3.657 62.171 10.971 87.771 7.314 29.257 18.286 54.857 29.257 84.114 14.629 25.6 32.914 51.2 58.514 76.8 21.943 21.943 36.571 40.229 43.886 58.514s7.314 36.571 7.314 62.171v131.657c0 43.886-32.914 65.829-102.4 65.829-29.257 0-51.2-7.314-65.829-18.286-14.629-14.629-21.943-29.257-21.943-43.886v-76.8c0-7.314-3.657-14.629-14.629-14.629-7.314-3.657-25.6-3.657-47.543-3.657-25.6 0-43.886 0-51.2 3.657-3.657-3.657-7.314 0-7.314 10.971v80.457c0 14.629 3.657 32.914 14.629 51.2s21.943 32.914 36.571 47.543c18.286 14.629 40.229 25.6 65.829 36.571 29.257 7.314 62.171 10.971 95.086 10.971 36.571 0 69.486-3.657 98.743-10.971s51.2-18.286 69.486-32.914c18.286-14.629 32.914-29.257 43.886-47.543s14.629-36.571 14.629-51.2v-153.6c0-40.229-7.314-73.143-25.6-102.4zM566.857-42.057c-14.629-10.971-32.914-18.286-54.857-21.943-18.286 0-32.914 0-40.229 3.657-10.971 3.657-18.286 7.314-25.6 14.629-7.314 3.657-10.971 10.971-10.971 18.286-3.657 7.314-3.657 14.629-3.657 21.943-3.657 18.286 3.657 36.571 21.943 51.2s36.571 21.943 62.171 21.943c21.943-3.657 40.229-3.657 51.2-7.314s18.286-7.314 25.6-14.629c3.657-7.314 7.314-14.629 7.314-21.943s0-14.629-3.657-25.6c-7.314-14.629-14.629-29.257-29.257-40.229z" />
<glyph unicode="&#xe629;" glyph-name="zonas" d="M559.543 221.257c36.571 124.343 91.429 201.143 135.314 281.6 43.886 73.143 76.8 131.657 76.8 193.829 0 146.286-117.029 263.314-263.314 263.314s-263.314-117.029-263.314-263.314c0-62.171 32.914-120.686 76.8-193.829 47.543-76.8 102.4-157.257 135.314-281.6-226.743-3.657-457.143-54.857-457.143-138.971 0-91.429 263.314-142.629 512-142.629s512 51.2 512 142.629c0 84.114-230.4 135.314-464.457 138.971zM398.629 685.714c0 58.514 47.543 109.714 106.057 109.714s109.714-47.543 109.714-109.714c0-58.514-47.543-109.714-109.714-109.714s-106.057 51.2-106.057 109.714zM490.057 104.229c0-10.971 10.971-18.286 21.943-18.286s21.943 7.314 21.943 18.286c0 7.314 3.657 18.286 3.657 25.6 135.314-3.657 208.457-32.914 208.457-47.543s-80.457-47.543-234.057-47.543c-153.6 0-234.057 32.914-234.057 47.543s69.486 43.886 208.457 47.543c0-10.971 3.657-18.286 3.657-25.6zM512-31.086c-299.886 0-482.743 65.829-482.743 113.371 0 43.886 168.229 106.057 442.514 109.714 3.657-10.971 3.657-21.943 7.314-32.914-117.029-3.657-230.4-29.257-230.4-76.8 0-54.857 135.314-76.8 263.314-76.8s263.314 25.6 263.314 76.8c0 47.543-113.371 73.143-230.4 76.8 3.657 10.971 3.657 21.943 7.314 32.914 274.286-3.657 442.514-65.829 442.514-109.714 0-47.543-182.857-113.371-482.743-113.371z" />
<glyph unicode="&#xe62a;" glyph-name="destacado" d="M0 777.143l241.371-329.143-241.371-329.143h1024v658.286h-1024zM841.143 418.743l-160.914 7.314 128-113.371-40.229-40.229-113.371 124.343 10.971-168.229h-58.514l7.314 168.229-113.371-124.343-43.886 40.229 120.686 113.371-146.286-7.314v58.514l149.943-7.314-117.029 113.371 40.229 40.229 113.371-124.343-10.971 168.229h58.514l-7.314-168.229 109.714 124.343 40.229-40.229-131.657-113.371 160.914 7.314v-58.514z" />
<glyph unicode="&#xe62b;" glyph-name="auto-compartido" d="M592.457 671.086c0-44.435-36.022-80.457-80.457-80.457s-80.457 36.022-80.457 80.457c0 44.435 36.022 80.457 80.457 80.457s80.457-36.022 80.457-80.457zM347.429 612.571c0-44.435-36.022-80.457-80.457-80.457s-80.457 36.022-80.457 80.457c0 44.435 36.022 80.457 80.457 80.457s80.457-36.022 80.457-80.457zM833.829 612.571c0-44.435-36.022-80.457-80.457-80.457s-80.457 36.022-80.457 80.457c0 44.435 36.022 80.457 80.457 80.457s80.457-36.022 80.457-80.457zM1020.343 367.543c-10.971 29.257-51.2 62.171-51.2 62.171l-58.514 263.314c0 0-32.914 128-124.343 146.286-98.743 21.943-208.457 21.943-274.286 21.943-62.171-3.657-175.543 0-277.943-21.943-87.771-18.286-124.343-146.286-124.343-146.286l-58.514-263.314c0 0-43.886-32.914-51.2-62.171-3.657-14.629 0-120.686 7.314-157.257 10.971-51.2 47.543-76.8 73.143-80.457v-58.514c0 0-3.657-40.229 21.943-40.229h98.743c0 0 21.943 0 21.943 40.229 0 36.571 0 47.543 0 47.543h577.829c0 0 0-10.971 0-47.543 0-40.229 21.943-40.229 21.943-40.229h95.086c25.6 0 21.943 40.229 21.943 40.229v58.514c25.6 3.657 65.829 29.257 73.143 80.457 7.314 36.571 10.971 142.629 7.314 157.257zM179.2 202.971c-40.229 0-73.143 32.914-73.143 73.143s32.914 73.143 73.143 73.143c40.229 0 73.143-32.914 73.143-73.143s-32.914-73.143-73.143-73.143zM841.143 202.971c-40.229 0-73.143 32.914-73.143 73.143s32.914 73.143 73.143 73.143 73.143-32.914 73.143-73.143c0-40.229-32.914-73.143-73.143-73.143zM917.943 429.714h-73.143c-21.943 51.2-54.857 80.457-87.771 80.457s-65.829-29.257-87.771-80.457h-51.2c-21.943 80.457-62.171 135.314-106.057 135.314s-87.771-54.857-106.057-135.314h-51.2c-21.943 47.543-54.857 80.457-87.771 80.457s-65.829-29.257-87.771-80.457h-69.486l51.2 234.057c0 0 29.257 117.029 109.714 131.657 87.771 18.286 186.514 14.629 241.371 18.286 54.857 0 153.6 0 245.029-14.629 76.8-18.286 109.714-131.657 109.714-131.657l51.2-237.714z" />
<glyph unicode="&#xe62c;" glyph-name="telefono-stroke" d="M943.543 181.029v0c-21.943 18.286-146.286 117.029-175.543 135.314-54.857 32.914-113.371-43.886-113.371-43.886-7.314-10.971-21.943-25.6-21.943-25.6-25.6-32.914-40.229-21.943-47.543-14.629-47.543 36.571-95.086 80.457-135.314 131.657l-18.286 21.943c-43.886 51.2-80.457 106.057-106.057 160.914-7.314 10.971-10.971 25.6 14.629 47.543l3.657 3.657c29.257 21.943 106.057 76.8 84.114 135.314-10.971 32.914-29.257 65.829-43.886 102.4l-3.657 3.657c-18.286 32.914-36.571 65.829-58.514 98.743-7.314 10.971-21.943 18.286-36.571 21.943-40.229 7.314-87.771-25.6-106.057-36.571l-14.629-10.971c-73.143-58.514-109.714-131.657-98.743-212.114 21.943-168.229 98.743-336.457 212.114-471.771s259.657-237.714 413.257-281.6c18.286-3.657 32.914-7.314 51.2-7.314 58.514 0 113.371 29.257 160.914 84.114 0 0 10.971 10.971 10.971 14.629 18.286 21.943 73.143 95.086 29.257 142.629zM277.943 923.429c7.314 0 10.971-3.657 14.629-7.314 18.286-29.257 36.571-62.171 54.857-91.429l3.657-3.657c18.286-36.571 32.914-69.486 47.543-102.4 7.314-18.286-7.314-40.229-43.886-73.143-21.943 32.914-43.886 73.143-65.829 113.371-32.914 51.2-54.857 102.4-73.143 146.286 25.6 14.629 47.543 21.943 62.171 18.286zM874.057 45.714c-51.2-58.514-113.371-84.114-171.886-65.829-146.286 43.886-288.914 138.971-394.971 270.629-109.714 131.657-179.2 292.571-204.8 457.143-7.314 62.171 21.943 124.343 84.114 175.543 14.629-43.886 36.571-91.429 62.171-138.971 21.943-43.886 47.543-87.771 69.486-120.686-43.886-32.914-40.229-69.486-29.257-91.429 29.257-58.514 65.829-113.371 109.714-168.229l18.286-21.943c43.886-51.2 91.429-98.743 142.629-138.971 14.629-10.971 51.2-32.914 95.086 18.286 29.257-29.257 62.171-58.514 102.4-87.771 43.886-32.914 84.114-62.171 124.343-84.114 0 0-3.657-3.657-7.314-3.657zM899.657 78.629c-36.571 21.943-76.8 47.543-120.686 80.457-36.571 29.257-73.143 58.514-98.743 87.771 40.229 47.543 58.514 43.886 69.486 36.571 29.257-18.286 51.2-32.914 80.457-54.857v0c3.657-3.657 3.657-3.657 10.971-7.314 18.286-14.629 62.171-51.2 80.457-65.829 7.314-14.629 0-40.229-21.943-76.8z" />
<glyph unicode="&#xe701;" glyph-name="instagram" d="M854 960h-684c-93.5 0-170-76.5-170-170v-684c0-93.5 76.5-170 170-170h684c93.5 0 170 76.5 170 170v684c0 93.5-76.5 170-170 170zM327.8 512h368.4c6.988-20.058 10.8-41.59 10.8-64 0-107.524-87.476-195-195-195s-195 87.476-195 195c0 22.41 3.812 43.942 10.8 64zM896 511.95v-383.95c0-35.2-28.8-64-64-64h-640c-35.2 0-64 28.8-64 64v384h100.108c-4.642-20.602-7.108-42.016-7.108-64 0-160.458 130.542-291 291-291s291 130.542 291 291c0 21.984-2.464 43.398-7.108 64l100.108-0.050zM896 736c0-17.6-14.4-32-32-32h-64c-17.6 0-32 14.4-32 32v64c0 17.6 14.4 32 32 32h64c17.6 0 32-14.4 32-32v-64z" />
<glyph unicode="&#xe703;" glyph-name="warning" d="M512 867.226l429.102-855.226h-858.206l429.104 855.226zM512 960c-22.070 0-44.14-14.882-60.884-44.648l-437.074-871.112c-33.486-59.532-5-108.24 63.304-108.24h869.308c68.3 0 96.792 48.708 63.3 108.24h0.002l-437.074 871.112c-16.742 29.766-38.812 44.648-60.882 44.648v0zM576 128c0-35.346-28.654-64-64-64s-64 28.654-64 64c0 35.346 28.654 64 64 64s64-28.654 64-64zM512 256c-35.346 0-64 28.654-64 64v192c0 35.346 28.654 64 64 64s64-28.654 64-64v-192c0-35.346-28.654-64-64-64z" />
<glyph unicode="&#xe706;" glyph-name="cancel-circle" d="M512 960c-282.77 0-512-229.23-512-512s229.23-512 512-512 512 229.23 512 512-229.23 512-512 512zM512 32c-229.75 0-416 186.25-416 416s186.25 416 416 416 416-186.25 416-416-186.25-416-416-416zM672 704l-160-160-160 160-96-96 160-160-160-160 96-96 160 160 160-160 96 96-160 160 160 160z" />
<glyph unicode="&#xe707;" glyph-name="blocked" d="M874.040 810.040c-96.706 96.702-225.28 149.96-362.040 149.96s-265.334-53.258-362.040-149.96c-96.702-96.706-149.96-225.28-149.96-362.040s53.258-265.334 149.96-362.040c96.706-96.702 225.28-149.96 362.040-149.96s265.334 53.258 362.040 149.96c96.702 96.706 149.96 225.28 149.96 362.040s-53.258 265.334-149.96 362.040zM896 448c0-82.814-26.354-159.588-71.112-222.38l-535.266 535.268c62.792 44.758 139.564 71.112 222.378 71.112 211.738 0 384-172.262 384-384zM128 448c0 82.814 26.354 159.586 71.112 222.378l535.27-535.268c-62.794-44.756-139.568-71.11-222.382-71.11-211.738 0-384 172.262-384 384z" />
<glyph unicode="&#xe708;" glyph-name="cross" d="M1014.662 137.34c-0.004 0.004-0.008 0.008-0.012 0.010l-310.644 310.65 310.644 310.65c0.004 0.004 0.008 0.006 0.012 0.010 3.344 3.346 5.762 7.254 7.312 11.416 4.246 11.376 1.824 24.682-7.324 33.83l-146.746 146.746c-9.148 9.146-22.45 11.566-33.828 7.32-4.16-1.55-8.070-3.968-11.418-7.31 0-0.004-0.004-0.006-0.008-0.010l-310.648-310.652-310.648 310.65c-0.004 0.004-0.006 0.006-0.010 0.010-3.346 3.342-7.254 5.76-11.414 7.31-11.38 4.248-24.682 1.826-33.83-7.32l-146.748-146.748c-9.148-9.148-11.568-22.452-7.322-33.828 1.552-4.16 3.97-8.072 7.312-11.416 0.004-0.002 0.006-0.006 0.010-0.010l310.65-310.648-310.65-310.652c-0.002-0.004-0.006-0.006-0.008-0.010-3.342-3.346-5.76-7.254-7.314-11.414-4.248-11.376-1.826-24.682 7.322-33.83l146.748-146.746c9.15-9.148 22.452-11.568 33.83-7.322 4.16 1.552 8.070 3.97 11.416 7.312 0.002 0.004 0.006 0.006 0.010 0.010l310.648 310.65 310.648-310.65c0.004-0.002 0.008-0.006 0.012-0.008 3.348-3.344 7.254-5.762 11.414-7.314 11.378-4.246 24.684-1.826 33.828 7.322l146.746 146.748c9.148 9.148 11.57 22.454 7.324 33.83-1.552 4.16-3.97 8.068-7.314 11.414z" />
<glyph unicode="&#xe709;" glyph-name="checkmark" d="M864 832l-480-480-224 224-160-160 384-384 640 640z" />
<glyph unicode="&#xe70a;" glyph-name="filter" d="M512 960c-282.77 0-512-71.634-512-160v-96l384-384v-320c0-35.346 57.306-64 128-64 70.692 0 128 28.654 128 64v320l384 384v96c0 88.366-229.23 160-512 160zM94.384 821.176c23.944 13.658 57.582 26.62 97.278 37.488 87.944 24.076 201.708 37.336 320.338 37.336 118.628 0 232.394-13.26 320.338-37.336 39.696-10.868 73.334-23.83 97.28-37.488 15.792-9.006 24.324-16.624 28.296-21.176-3.972-4.552-12.506-12.168-28.296-21.176-23.946-13.658-57.584-26.62-97.28-37.488-87.942-24.076-201.708-37.336-320.338-37.336s-232.394 13.26-320.338 37.336c-39.696 10.868-73.334 23.83-97.278 37.488-15.792 9.008-24.324 16.624-28.298 21.176 3.974 4.552 12.506 12.168 28.298 21.176z" />
<glyph unicode="&#xe70b;" glyph-name="share" d="M864 256c-45.16 0-85.92-18.738-115.012-48.83l-431.004 215.502c1.314 8.252 2.016 16.706 2.016 25.328s-0.702 17.076-2.016 25.326l431.004 215.502c29.092-30.090 69.852-48.828 115.012-48.828 88.366 0 160 71.634 160 160s-71.634 160-160 160-160-71.634-160-160c0-8.622 0.704-17.076 2.016-25.326l-431.004-215.504c-29.092 30.090-69.852 48.83-115.012 48.83-88.366 0-160-71.636-160-160 0-88.368 71.634-160 160-160 45.16 0 85.92 18.738 115.012 48.828l431.004-215.502c-1.312-8.25-2.016-16.704-2.016-25.326 0-88.368 71.634-160 160-160s160 71.632 160 160c0 88.364-71.634 160-160 160z" />
<glyph unicode="&#xe70c;" glyph-name="feed" d="M853.34 960h-682.654c-93.876 0-170.686-76.812-170.686-170.688v-682.628c0-93.934 76.812-170.684 170.688-170.684h682.652c93.876 0 170.66 76.748 170.66 170.684v682.628c0 93.876-76.784 170.688-170.66 170.688zM278.944 128.752c-47.97 0-86.944 38.692-86.944 86.628 0 47.684 38.972 86.812 86.944 86.812 48.158 0 87.060-39.128 87.060-86.812-0.002-47.936-38.904-86.628-87.060-86.628zM497.468 128.004c0 81.81-31.808 158.818-89.46 216.444-57.714 57.75-134.376 89.626-215.904 89.626v125.186c237.652 0 431.126-193.442 431.126-431.254l-125.762-0.002zM719.628 128.004c0 291.062-236.658 527.94-527.376 527.94v125.248c360.002 0 652.946-293.124 652.946-653.192l-125.57 0.004z" />
<glyph unicode="&#xe70d;" glyph-name="html5" d="M60.538 960l82.144-921.63 368.756-102.37 369.724 102.524 82.3 921.476h-902.924zM784.63 658.572h-432.54l10.302-115.75h411.968l-31.042-347.010-231.844-64.254-231.572 64.254-15.83 177.512h113.494l8.048-90.232 125.862-33.916 0.278 0.078 125.934 33.992 13.070 146.55h-391.74l-30.494 341.8h566.214l-10.108-113.024z" />
<glyph unicode="&#xe70e;" glyph-name="html52" d="M60.538 960l82.144-921.63 368.756-102.37 369.724 102.524 82.3 921.476h-902.924zM810.762 97.176l-297.226-82.376v-0.466l-0.776 0.234-0.782-0.234v0.466l-297.222 82.376-70.242 787.486h736.496l-70.248-787.486zM650.754 429.796l-13.070-146.552-126.21-34.070-125.862 33.916-8.050 90.234h-113.49l15.83-177.512 232.076-64.176 231.342 64.176 31.040 347.012h-411.966l-10.302 115.748h432.534l10.112 113.026h-566.218l30.498-341.802z" />
<glyph unicode="&#xe900;" glyph-name="google-plus" d="M0 462.629c-10.971-128 73.143-252.343 193.829-299.886 117.029-43.886 270.629-14.629 347.429 91.429 51.2 65.829 62.171 153.6 54.857 234.057-98.743 0-193.829 0-292.571 0 0-32.914 0-69.486 0-102.4 58.514-3.657 117.029 0 175.543-3.657-25.6-128-201.143-171.886-292.571-87.771-95.086 73.143-91.429 234.057 7.314 303.543 69.486 54.857 168.229 40.229 237.714-7.314 25.6 25.6 51.2 51.2 76.8 80.457-58.514 47.543-128 80.457-204.8 76.8-153.6 10.971-299.886-128-303.543-285.257zM1024 521.143h-109.714v109.714h-109.714v-109.714h-109.714v-109.714h109.714v-109.714h109.714v109.714h109.714z" />
<glyph unicode="&#xe901;" d="M36.571 960c0-20.198-16.374-36.571-36.571-36.571s-36.571 16.374-36.571 36.571c0 20.198 16.374 36.571 36.571 36.571s36.571-16.374 36.571-36.571z" />
<glyph unicode="&#xe902;" d="M73.143 960c0-20.198-16.374-36.571-36.571-36.571s-36.571 16.374-36.571 36.571c0 20.198 16.374 36.571 36.571 36.571s36.571-16.374 36.571-36.571z" />
<glyph unicode="&#xe903;" d="M109.714 960c0-20.198-16.374-36.571-36.571-36.571s-36.571 16.374-36.571 36.571c0 20.198 16.374 36.571 36.571 36.571s36.571-16.374 36.571-36.571z" />
<glyph unicode="&#xe904;" d="M146.286 960c0-20.198-16.374-36.571-36.571-36.571s-36.571 16.374-36.571 36.571c0 20.198 16.374 36.571 36.571 36.571s36.571-16.374 36.571-36.571z" />
<glyph unicode="&#xe905;" d="M182.857 960c0-20.198-16.374-36.571-36.571-36.571s-36.571 16.374-36.571 36.571c0 20.198 16.374 36.571 36.571 36.571s36.571-16.374 36.571-36.571z" />
<glyph unicode="&#xe906;" d="M219.429 960c0-20.198-16.374-36.571-36.571-36.571s-36.571 16.374-36.571 36.571c0 20.198 16.374 36.571 36.571 36.571s36.571-16.374 36.571-36.571z" />
<glyph unicode="&#xe907;" d="M256 960c0-20.198-16.374-36.571-36.571-36.571s-36.571 16.374-36.571 36.571c0 20.198 16.374 36.571 36.571 36.571s36.571-16.374 36.571-36.571z" />
<glyph unicode="&#xe908;" d="M292.571 960c0-20.198-16.374-36.571-36.571-36.571s-36.571 16.374-36.571 36.571c0 20.198 16.374 36.571 36.571 36.571s36.571-16.374 36.571-36.571z" />
<glyph unicode="&#xe909;" d="M329.143 960c0-20.198-16.374-36.571-36.571-36.571s-36.571 16.374-36.571 36.571c0 20.198 16.374 36.571 36.571 36.571s36.571-16.374 36.571-36.571z" />
<glyph unicode="&#xe90a;" d="M365.714 960c0-20.198-16.374-36.571-36.571-36.571s-36.571 16.374-36.571 36.571c0 20.198 16.374 36.571 36.571 36.571s36.571-16.374 36.571-36.571z" />
<glyph unicode="&#xe90b;" d="M402.286 960c0-20.198-16.374-36.571-36.571-36.571s-36.571 16.374-36.571 36.571c0 20.198 16.374 36.571 36.571 36.571s36.571-16.374 36.571-36.571z" />
<glyph unicode="&#xe90c;" d="M438.857 960c0-20.198-16.374-36.571-36.571-36.571s-36.571 16.374-36.571 36.571c0 20.198 16.374 36.571 36.571 36.571s36.571-16.374 36.571-36.571z" />
<glyph unicode="&#xe90d;" d="M475.429 960c0-20.198-16.374-36.571-36.571-36.571s-36.571 16.374-36.571 36.571c0 20.198 16.374 36.571 36.571 36.571s36.571-16.374 36.571-36.571z" />
<glyph unicode="&#xe90e;" d="M512 960c0-20.198-16.374-36.571-36.571-36.571s-36.571 16.374-36.571 36.571c0 20.198 16.374 36.571 36.571 36.571s36.571-16.374 36.571-36.571z" />
<glyph unicode="&#xe90f;" d="M548.571 960c0-20.198-16.374-36.571-36.571-36.571s-36.571 16.374-36.571 36.571c0 20.198 16.374 36.571 36.571 36.571s36.571-16.374 36.571-36.571z" />
<glyph unicode="&#xe910;" d="M585.143 960c0-20.198-16.374-36.571-36.571-36.571s-36.571 16.374-36.571 36.571c0 20.198 16.374 36.571 36.571 36.571s36.571-16.374 36.571-36.571z" />
<glyph unicode="&#xe911;" d="M621.714 960c0-20.198-16.374-36.571-36.571-36.571s-36.571 16.374-36.571 36.571c0 20.198 16.374 36.571 36.571 36.571s36.571-16.374 36.571-36.571z" />
<glyph unicode="&#xe912;" d="M658.286 960c0-20.198-16.374-36.571-36.571-36.571s-36.571 16.374-36.571 36.571c0 20.198 16.374 36.571 36.571 36.571s36.571-16.374 36.571-36.571z" />
<glyph unicode="&#xe913;" d="M694.857 960c0-20.198-16.374-36.571-36.571-36.571s-36.571 16.374-36.571 36.571c0 20.198 16.374 36.571 36.571 36.571s36.571-16.374 36.571-36.571z" />
<glyph unicode="&#xe914;" d="M731.429 960c0-20.198-16.374-36.571-36.571-36.571s-36.571 16.374-36.571 36.571c0 20.198 16.374 36.571 36.571 36.571s36.571-16.374 36.571-36.571z" />
<glyph unicode="&#xe915;" d="M768 960c0-20.198-16.374-36.571-36.571-36.571s-36.571 16.374-36.571 36.571c0 20.198 16.374 36.571 36.571 36.571s36.571-16.374 36.571-36.571z" />
<glyph unicode="&#xe916;" d="M804.571 960c0-20.198-16.374-36.571-36.571-36.571s-36.571 16.374-36.571 36.571c0 20.198 16.374 36.571 36.571 36.571s36.571-16.374 36.571-36.571z" />
<glyph unicode="&#xe917;" d="M841.143 960c0-20.198-16.374-36.571-36.571-36.571s-36.571 16.374-36.571 36.571c0 20.198 16.374 36.571 36.571 36.571s36.571-16.374 36.571-36.571z" />
<glyph unicode="&#xe918;" d="M877.714 960c0-20.198-16.374-36.571-36.571-36.571s-36.571 16.374-36.571 36.571c0 20.198 16.374 36.571 36.571 36.571s36.571-16.374 36.571-36.571z" />
<glyph unicode="&#xe919;" d="M914.286 960c0-20.198-16.374-36.571-36.571-36.571s-36.571 16.374-36.571 36.571c0 20.198 16.374 36.571 36.571 36.571s36.571-16.374 36.571-36.571z" />
<glyph unicode="&#xe91a;" d="M950.857 960c0-20.198-16.374-36.571-36.571-36.571s-36.571 16.374-36.571 36.571c0 20.198 16.374 36.571 36.571 36.571s36.571-16.374 36.571-36.571z" />
<glyph unicode="&#xe91b;" d="M987.429 960c0-20.198-16.374-36.571-36.571-36.571s-36.571 16.374-36.571 36.571c0 20.198 16.374 36.571 36.571 36.571s36.571-16.374 36.571-36.571z" />
<glyph unicode="&#xe91c;" d="M1024 960c0-20.198-16.374-36.571-36.571-36.571s-36.571 16.374-36.571 36.571c0 20.198 16.374 36.571 36.571 36.571s36.571-16.374 36.571-36.571z" />
<glyph unicode="&#xe91d;" d="M36.571 923.429c0-20.198-16.374-36.571-36.571-36.571s-36.571 16.374-36.571 36.571c0 20.198 16.374 36.571 36.571 36.571s36.571-16.374 36.571-36.571z" />
<glyph unicode="&#xe91e;" d="M73.143 923.429c0-20.198-16.374-36.571-36.571-36.571s-36.571 16.374-36.571 36.571c0 20.198 16.374 36.571 36.571 36.571s36.571-16.374 36.571-36.571z" />
<glyph unicode="&#xe91f;" d="M109.714 923.429c0-20.198-16.374-36.571-36.571-36.571s-36.571 16.374-36.571 36.571c0 20.198 16.374 36.571 36.571 36.571s36.571-16.374 36.571-36.571z" />
<glyph unicode="&#xe920;" d="M146.286 923.429c0-20.198-16.374-36.571-36.571-36.571s-36.571 16.374-36.571 36.571c0 20.198 16.374 36.571 36.571 36.571s36.571-16.374 36.571-36.571z" />
<glyph unicode="&#xe921;" d="M182.857 923.429c0-20.198-16.374-36.571-36.571-36.571s-36.571 16.374-36.571 36.571c0 20.198 16.374 36.571 36.571 36.571s36.571-16.374 36.571-36.571z" />
<glyph unicode="&#xe922;" d="M219.429 923.429c0-20.198-16.374-36.571-36.571-36.571s-36.571 16.374-36.571 36.571c0 20.198 16.374 36.571 36.571 36.571s36.571-16.374 36.571-36.571z" />
<glyph unicode="&#xe923;" d="M256 923.429c0-20.198-16.374-36.571-36.571-36.571s-36.571 16.374-36.571 36.571c0 20.198 16.374 36.571 36.571 36.571s36.571-16.374 36.571-36.571z" />
<glyph unicode="&#xe924;" d="M292.571 923.429c0-20.198-16.374-36.571-36.571-36.571s-36.571 16.374-36.571 36.571c0 20.198 16.374 36.571 36.571 36.571s36.571-16.374 36.571-36.571z" />
<glyph unicode="&#xe925;" d="M329.143 923.429c0-20.198-16.374-36.571-36.571-36.571s-36.571 16.374-36.571 36.571c0 20.198 16.374 36.571 36.571 36.571s36.571-16.374 36.571-36.571z" />
<glyph unicode="&#xe926;" d="M365.714 923.429c0-20.198-16.374-36.571-36.571-36.571s-36.571 16.374-36.571 36.571c0 20.198 16.374 36.571 36.571 36.571s36.571-16.374 36.571-36.571z" />
<glyph unicode="&#xe927;" d="M402.286 923.429c0-20.198-16.374-36.571-36.571-36.571s-36.571 16.374-36.571 36.571c0 20.198 16.374 36.571 36.571 36.571s36.571-16.374 36.571-36.571z" />
<glyph unicode="&#xe928;" d="M438.857 923.429c0-20.198-16.374-36.571-36.571-36.571s-36.571 16.374-36.571 36.571c0 20.198 16.374 36.571 36.571 36.571s36.571-16.374 36.571-36.571z" />
<glyph unicode="&#xe929;" d="M475.429 923.429c0-20.198-16.374-36.571-36.571-36.571s-36.571 16.374-36.571 36.571c0 20.198 16.374 36.571 36.571 36.571s36.571-16.374 36.571-36.571z" />
<glyph unicode="&#xe92a;" d="M512 923.429c0-20.198-16.374-36.571-36.571-36.571s-36.571 16.374-36.571 36.571c0 20.198 16.374 36.571 36.571 36.571s36.571-16.374 36.571-36.571z" />
<glyph unicode="&#xe92b;" d="M548.571 923.429c0-20.198-16.374-36.571-36.571-36.571s-36.571 16.374-36.571 36.571c0 20.198 16.374 36.571 36.571 36.571s36.571-16.374 36.571-36.571z" />
<glyph unicode="&#xe92c;" d="M585.143 923.429c0-20.198-16.374-36.571-36.571-36.571s-36.571 16.374-36.571 36.571c0 20.198 16.374 36.571 36.571 36.571s36.571-16.374 36.571-36.571z" />
<glyph unicode="&#xe92d;" d="M621.714 923.429c0-20.198-16.374-36.571-36.571-36.571s-36.571 16.374-36.571 36.571c0 20.198 16.374 36.571 36.571 36.571s36.571-16.374 36.571-36.571z" />
<glyph unicode="&#xe92e;" d="M658.286 923.429c0-20.198-16.374-36.571-36.571-36.571s-36.571 16.374-36.571 36.571c0 20.198 16.374 36.571 36.571 36.571s36.571-16.374 36.571-36.571z" />
<glyph unicode="&#xe92f;" d="M694.857 923.429c0-20.198-16.374-36.571-36.571-36.571s-36.571 16.374-36.571 36.571c0 20.198 16.374 36.571 36.571 36.571s36.571-16.374 36.571-36.571z" />
<glyph unicode="&#xe930;" d="M731.429 923.429c0-20.198-16.374-36.571-36.571-36.571s-36.571 16.374-36.571 36.571c0 20.198 16.374 36.571 36.571 36.571s36.571-16.374 36.571-36.571z" />
<glyph unicode="&#xe931;" d="M768 923.429c0-20.198-16.374-36.571-36.571-36.571s-36.571 16.374-36.571 36.571c0 20.198 16.374 36.571 36.571 36.571s36.571-16.374 36.571-36.571z" />
<glyph unicode="&#xe932;" d="M804.571 923.429c0-20.198-16.374-36.571-36.571-36.571s-36.571 16.374-36.571 36.571c0 20.198 16.374 36.571 36.571 36.571s36.571-16.374 36.571-36.571z" />
<glyph unicode="&#xe933;" d="M841.143 923.429c0-20.198-16.374-36.571-36.571-36.571s-36.571 16.374-36.571 36.571c0 20.198 16.374 36.571 36.571 36.571s36.571-16.374 36.571-36.571z" />
<glyph unicode="&#xe934;" d="M877.714 923.429c0-20.198-16.374-36.571-36.571-36.571s-36.571 16.374-36.571 36.571c0 20.198 16.374 36.571 36.571 36.571s36.571-16.374 36.571-36.571z" />
<glyph unicode="&#xe935;" d="M914.286 923.429c0-20.198-16.374-36.571-36.571-36.571s-36.571 16.374-36.571 36.571c0 20.198 16.374 36.571 36.571 36.571s36.571-16.374 36.571-36.571z" />
<glyph unicode="&#xe936;" d="M950.857 923.429c0-20.198-16.374-36.571-36.571-36.571s-36.571 16.374-36.571 36.571c0 20.198 16.374 36.571 36.571 36.571s36.571-16.374 36.571-36.571z" />
<glyph unicode="&#xe937;" d="M987.429 923.429c0-20.198-16.374-36.571-36.571-36.571s-36.571 16.374-36.571 36.571c0 20.198 16.374 36.571 36.571 36.571s36.571-16.374 36.571-36.571z" />
<glyph unicode="&#xe938;" d="M1024 923.429c0-20.198-16.374-36.571-36.571-36.571s-36.571 16.374-36.571 36.571c0 20.198 16.374 36.571 36.571 36.571s36.571-16.374 36.571-36.571z" />
<glyph unicode="&#xe939;" d="M36.571 886.857c0-20.198-16.374-36.571-36.571-36.571s-36.571 16.374-36.571 36.571c0 20.198 16.374 36.571 36.571 36.571s36.571-16.374 36.571-36.571z" />
<glyph unicode="&#xe93a;" d="M73.143 886.857c0-20.198-16.374-36.571-36.571-36.571s-36.571 16.374-36.571 36.571c0 20.198 16.374 36.571 36.571 36.571s36.571-16.374 36.571-36.571z" />
<glyph unicode="&#xe93b;" d="M109.714 886.857c0-20.198-16.374-36.571-36.571-36.571s-36.571 16.374-36.571 36.571c0 20.198 16.374 36.571 36.571 36.571s36.571-16.374 36.571-36.571z" />
<glyph unicode="&#xe93c;" d="M146.286 886.857c0-20.198-16.374-36.571-36.571-36.571s-36.571 16.374-36.571 36.571c0 20.198 16.374 36.571 36.571 36.571s36.571-16.374 36.571-36.571z" />
<glyph unicode="&#xe93d;" d="M182.857 886.857c0-20.198-16.374-36.571-36.571-36.571s-36.571 16.374-36.571 36.571c0 20.198 16.374 36.571 36.571 36.571s36.571-16.374 36.571-36.571z" />
<glyph unicode="&#xe93e;" d="M219.429 886.857c0-20.198-16.374-36.571-36.571-36.571s-36.571 16.374-36.571 36.571c0 20.198 16.374 36.571 36.571 36.571s36.571-16.374 36.571-36.571z" />
<glyph unicode="&#xe93f;" d="M256 886.857c0-20.198-16.374-36.571-36.571-36.571s-36.571 16.374-36.571 36.571c0 20.198 16.374 36.571 36.571 36.571s36.571-16.374 36.571-36.571z" />
<glyph unicode="&#xe940;" d="M292.571 886.857c0-20.198-16.374-36.571-36.571-36.571s-36.571 16.374-36.571 36.571c0 20.198 16.374 36.571 36.571 36.571s36.571-16.374 36.571-36.571z" />
<glyph unicode="&#xe941;" d="M329.143 886.857c0-20.198-16.374-36.571-36.571-36.571s-36.571 16.374-36.571 36.571c0 20.198 16.374 36.571 36.571 36.571s36.571-16.374 36.571-36.571z" />
<glyph unicode="&#xe942;" d="M365.714 886.857c0-20.198-16.374-36.571-36.571-36.571s-36.571 16.374-36.571 36.571c0 20.198 16.374 36.571 36.571 36.571s36.571-16.374 36.571-36.571z" />
<glyph unicode="&#xe943;" d="M402.286 886.857c0-20.198-16.374-36.571-36.571-36.571s-36.571 16.374-36.571 36.571c0 20.198 16.374 36.571 36.571 36.571s36.571-16.374 36.571-36.571z" />
<glyph unicode="&#xe944;" d="M438.857 886.857c0-20.198-16.374-36.571-36.571-36.571s-36.571 16.374-36.571 36.571c0 20.198 16.374 36.571 36.571 36.571s36.571-16.374 36.571-36.571z" />
<glyph unicode="&#xe945;" d="M475.429 886.857c0-20.198-16.374-36.571-36.571-36.571s-36.571 16.374-36.571 36.571c0 20.198 16.374 36.571 36.571 36.571s36.571-16.374 36.571-36.571z" />
<glyph unicode="&#xe946;" d="M512 886.857c0-20.198-16.374-36.571-36.571-36.571s-36.571 16.374-36.571 36.571c0 20.198 16.374 36.571 36.571 36.571s36.571-16.374 36.571-36.571z" />
<glyph unicode="&#xe947;" d="M548.571 886.857c0-20.198-16.374-36.571-36.571-36.571s-36.571 16.374-36.571 36.571c0 20.198 16.374 36.571 36.571 36.571s36.571-16.374 36.571-36.571z" />
<glyph unicode="&#xe948;" d="M585.143 886.857c0-20.198-16.374-36.571-36.571-36.571s-36.571 16.374-36.571 36.571c0 20.198 16.374 36.571 36.571 36.571s36.571-16.374 36.571-36.571z" />
<glyph unicode="&#xe949;" d="M621.714 886.857c0-20.198-16.374-36.571-36.571-36.571s-36.571 16.374-36.571 36.571c0 20.198 16.374 36.571 36.571 36.571s36.571-16.374 36.571-36.571z" />
<glyph unicode="&#xe94a;" d="M658.286 886.857c0-20.198-16.374-36.571-36.571-36.571s-36.571 16.374-36.571 36.571c0 20.198 16.374 36.571 36.571 36.571s36.571-16.374 36.571-36.571z" />
<glyph unicode="&#xe94b;" d="M694.857 886.857c0-20.198-16.374-36.571-36.571-36.571s-36.571 16.374-36.571 36.571c0 20.198 16.374 36.571 36.571 36.571s36.571-16.374 36.571-36.571z" />
<glyph unicode="&#xe94c;" d="M731.429 886.857c0-20.198-16.374-36.571-36.571-36.571s-36.571 16.374-36.571 36.571c0 20.198 16.374 36.571 36.571 36.571s36.571-16.374 36.571-36.571z" />
<glyph unicode="&#xe94d;" d="M768 886.857c0-20.198-16.374-36.571-36.571-36.571s-36.571 16.374-36.571 36.571c0 20.198 16.374 36.571 36.571 36.571s36.571-16.374 36.571-36.571z" />
<glyph unicode="&#xe94e;" d="M804.571 886.857c0-20.198-16.374-36.571-36.571-36.571s-36.571 16.374-36.571 36.571c0 20.198 16.374 36.571 36.571 36.571s36.571-16.374 36.571-36.571z" />
<glyph unicode="&#xe94f;" d="M841.143 886.857c0-20.198-16.374-36.571-36.571-36.571s-36.571 16.374-36.571 36.571c0 20.198 16.374 36.571 36.571 36.571s36.571-16.374 36.571-36.571z" />
<glyph unicode="&#xe950;" d="M877.714 886.857c0-20.198-16.374-36.571-36.571-36.571s-36.571 16.374-36.571 36.571c0 20.198 16.374 36.571 36.571 36.571s36.571-16.374 36.571-36.571z" />
<glyph unicode="&#xe951;" d="M914.286 886.857c0-20.198-16.374-36.571-36.571-36.571s-36.571 16.374-36.571 36.571c0 20.198 16.374 36.571 36.571 36.571s36.571-16.374 36.571-36.571z" />
<glyph unicode="&#xe952;" d="M950.857 886.857c0-20.198-16.374-36.571-36.571-36.571s-36.571 16.374-36.571 36.571c0 20.198 16.374 36.571 36.571 36.571s36.571-16.374 36.571-36.571z" />
<glyph unicode="&#xe953;" d="M987.429 886.857c0-20.198-16.374-36.571-36.571-36.571s-36.571 16.374-36.571 36.571c0 20.198 16.374 36.571 36.571 36.571s36.571-16.374 36.571-36.571z" />
<glyph unicode="&#xe954;" d="M1024 886.857c0-20.198-16.374-36.571-36.571-36.571s-36.571 16.374-36.571 36.571c0 20.198 16.374 36.571 36.571 36.571s36.571-16.374 36.571-36.571z" />
<glyph unicode="&#xe955;" d="M36.571 850.286c0-20.198-16.374-36.571-36.571-36.571s-36.571 16.374-36.571 36.571c0 20.198 16.374 36.571 36.571 36.571s36.571-16.374 36.571-36.571z" />
<glyph unicode="&#xe956;" d="M73.143 850.286c0-20.198-16.374-36.571-36.571-36.571s-36.571 16.374-36.571 36.571c0 20.198 16.374 36.571 36.571 36.571s36.571-16.374 36.571-36.571z" />
<glyph unicode="&#xe957;" d="M109.714 850.286c0-20.198-16.374-36.571-36.571-36.571s-36.571 16.374-36.571 36.571c0 20.198 16.374 36.571 36.571 36.571s36.571-16.374 36.571-36.571z" />
<glyph unicode="&#xe958;" d="M146.286 850.286c0-20.198-16.374-36.571-36.571-36.571s-36.571 16.374-36.571 36.571c0 20.198 16.374 36.571 36.571 36.571s36.571-16.374 36.571-36.571z" />
<glyph unicode="&#xe959;" d="M182.857 850.286c0-20.198-16.374-36.571-36.571-36.571s-36.571 16.374-36.571 36.571c0 20.198 16.374 36.571 36.571 36.571s36.571-16.374 36.571-36.571z" />
<glyph unicode="&#xe95a;" d="M219.429 850.286c0-20.198-16.374-36.571-36.571-36.571s-36.571 16.374-36.571 36.571c0 20.198 16.374 36.571 36.571 36.571s36.571-16.374 36.571-36.571z" />
<glyph unicode="&#xe95b;" d="M256 850.286c0-20.198-16.374-36.571-36.571-36.571s-36.571 16.374-36.571 36.571c0 20.198 16.374 36.571 36.571 36.571s36.571-16.374 36.571-36.571z" />
<glyph unicode="&#xe95c;" d="M292.571 850.286c0-20.198-16.374-36.571-36.571-36.571s-36.571 16.374-36.571 36.571c0 20.198 16.374 36.571 36.571 36.571s36.571-16.374 36.571-36.571z" />
<glyph unicode="&#xe95d;" d="M329.143 850.286c0-20.198-16.374-36.571-36.571-36.571s-36.571 16.374-36.571 36.571c0 20.198 16.374 36.571 36.571 36.571s36.571-16.374 36.571-36.571z" />
<glyph unicode="&#xe95e;" d="M365.714 850.286c0-20.198-16.374-36.571-36.571-36.571s-36.571 16.374-36.571 36.571c0 20.198 16.374 36.571 36.571 36.571s36.571-16.374 36.571-36.571z" />
<glyph unicode="&#xe95f;" d="M402.286 850.286c0-20.198-16.374-36.571-36.571-36.571s-36.571 16.374-36.571 36.571c0 20.198 16.374 36.571 36.571 36.571s36.571-16.374 36.571-36.571z" />
<glyph unicode="&#xe960;" d="M438.857 850.286c0-20.198-16.374-36.571-36.571-36.571s-36.571 16.374-36.571 36.571c0 20.198 16.374 36.571 36.571 36.571s36.571-16.374 36.571-36.571z" />
<glyph unicode="&#xe961;" d="M475.429 850.286c0-20.198-16.374-36.571-36.571-36.571s-36.571 16.374-36.571 36.571c0 20.198 16.374 36.571 36.571 36.571s36.571-16.374 36.571-36.571z" />
<glyph unicode="&#xe962;" d="M512 850.286c0-20.198-16.374-36.571-36.571-36.571s-36.571 16.374-36.571 36.571c0 20.198 16.374 36.571 36.571 36.571s36.571-16.374 36.571-36.571z" />
<glyph unicode="&#xe963;" d="M548.571 850.286c0-20.198-16.374-36.571-36.571-36.571s-36.571 16.374-36.571 36.571c0 20.198 16.374 36.571 36.571 36.571s36.571-16.374 36.571-36.571z" />
<glyph unicode="&#xe964;" d="M585.143 850.286c0-20.198-16.374-36.571-36.571-36.571s-36.571 16.374-36.571 36.571c0 20.198 16.374 36.571 36.571 36.571s36.571-16.374 36.571-36.571z" />
<glyph unicode="&#xe965;" d="M621.714 850.286c0-20.198-16.374-36.571-36.571-36.571s-36.571 16.374-36.571 36.571c0 20.198 16.374 36.571 36.571 36.571s36.571-16.374 36.571-36.571z" />
<glyph unicode="&#xe966;" d="M658.286 850.286c0-20.198-16.374-36.571-36.571-36.571s-36.571 16.374-36.571 36.571c0 20.198 16.374 36.571 36.571 36.571s36.571-16.374 36.571-36.571z" />
<glyph unicode="&#xe967;" d="M694.857 850.286c0-20.198-16.374-36.571-36.571-36.571s-36.571 16.374-36.571 36.571c0 20.198 16.374 36.571 36.571 36.571s36.571-16.374 36.571-36.571z" />
<glyph unicode="&#xe968;" d="M731.429 850.286c0-20.198-16.374-36.571-36.571-36.571s-36.571 16.374-36.571 36.571c0 20.198 16.374 36.571 36.571 36.571s36.571-16.374 36.571-36.571z" />
<glyph unicode="&#xe969;" d="M768 850.286c0-20.198-16.374-36.571-36.571-36.571s-36.571 16.374-36.571 36.571c0 20.198 16.374 36.571 36.571 36.571s36.571-16.374 36.571-36.571z" />
<glyph unicode="&#xe96a;" d="M804.571 850.286c0-20.198-16.374-36.571-36.571-36.571s-36.571 16.374-36.571 36.571c0 20.198 16.374 36.571 36.571 36.571s36.571-16.374 36.571-36.571z" />
<glyph unicode="&#xe96b;" d="M841.143 850.286c0-20.198-16.374-36.571-36.571-36.571s-36.571 16.374-36.571 36.571c0 20.198 16.374 36.571 36.571 36.571s36.571-16.374 36.571-36.571z" />
<glyph unicode="&#xe96c;" d="M877.714 850.286c0-20.198-16.374-36.571-36.571-36.571s-36.571 16.374-36.571 36.571c0 20.198 16.374 36.571 36.571 36.571s36.571-16.374 36.571-36.571z" />
<glyph unicode="&#xe96d;" d="M914.286 850.286c0-20.198-16.374-36.571-36.571-36.571s-36.571 16.374-36.571 36.571c0 20.198 16.374 36.571 36.571 36.571s36.571-16.374 36.571-36.571z" />
<glyph unicode="&#xe96e;" d="M950.857 850.286c0-20.198-16.374-36.571-36.571-36.571s-36.571 16.374-36.571 36.571c0 20.198 16.374 36.571 36.571 36.571s36.571-16.374 36.571-36.571z" />
<glyph unicode="&#xe96f;" d="M987.429 850.286c0-20.198-16.374-36.571-36.571-36.571s-36.571 16.374-36.571 36.571c0 20.198 16.374 36.571 36.571 36.571s36.571-16.374 36.571-36.571z" />
<glyph unicode="&#xe970;" d="M1024 850.286c0-20.198-16.374-36.571-36.571-36.571s-36.571 16.374-36.571 36.571c0 20.198 16.374 36.571 36.571 36.571s36.571-16.374 36.571-36.571z" />
<glyph unicode="&#xe971;" d="M36.571 813.714c0-20.198-16.374-36.571-36.571-36.571s-36.571 16.374-36.571 36.571c0 20.198 16.374 36.571 36.571 36.571s36.571-16.374 36.571-36.571z" />
<glyph unicode="&#xe972;" d="M73.143 813.714c0-20.198-16.374-36.571-36.571-36.571s-36.571 16.374-36.571 36.571c0 20.198 16.374 36.571 36.571 36.571s36.571-16.374 36.571-36.571z" />
<glyph unicode="&#xe973;" d="M109.714 813.714c0-20.198-16.374-36.571-36.571-36.571s-36.571 16.374-36.571 36.571c0 20.198 16.374 36.571 36.571 36.571s36.571-16.374 36.571-36.571z" />
<glyph unicode="&#xe974;" d="M146.286 813.714c0-20.198-16.374-36.571-36.571-36.571s-36.571 16.374-36.571 36.571c0 20.198 16.374 36.571 36.571 36.571s36.571-16.374 36.571-36.571z" />
<glyph unicode="&#xe975;" d="M182.857 813.714c0-20.198-16.374-36.571-36.571-36.571s-36.571 16.374-36.571 36.571c0 20.198 16.374 36.571 36.571 36.571s36.571-16.374 36.571-36.571z" />
<glyph unicode="&#xe976;" d="M219.429 813.714c0-20.198-16.374-36.571-36.571-36.571s-36.571 16.374-36.571 36.571c0 20.198 16.374 36.571 36.571 36.571s36.571-16.374 36.571-36.571z" />
<glyph unicode="&#xe977;" d="M256 813.714c0-20.198-16.374-36.571-36.571-36.571s-36.571 16.374-36.571 36.571c0 20.198 16.374 36.571 36.571 36.571s36.571-16.374 36.571-36.571z" />
<glyph unicode="&#xe978;" d="M292.571 813.714c0-20.198-16.374-36.571-36.571-36.571s-36.571 16.374-36.571 36.571c0 20.198 16.374 36.571 36.571 36.571s36.571-16.374 36.571-36.571z" />
<glyph unicode="&#xe979;" d="M329.143 813.714c0-20.198-16.374-36.571-36.571-36.571s-36.571 16.374-36.571 36.571c0 20.198 16.374 36.571 36.571 36.571s36.571-16.374 36.571-36.571z" />
<glyph unicode="&#xe97a;" d="M365.714 813.714c0-20.198-16.374-36.571-36.571-36.571s-36.571 16.374-36.571 36.571c0 20.198 16.374 36.571 36.571 36.571s36.571-16.374 36.571-36.571z" />
<glyph unicode="&#xe97b;" d="M402.286 813.714c0-20.198-16.374-36.571-36.571-36.571s-36.571 16.374-36.571 36.571c0 20.198 16.374 36.571 36.571 36.571s36.571-16.374 36.571-36.571z" />
<glyph unicode="&#xe97c;" d="M438.857 813.714c0-20.198-16.374-36.571-36.571-36.571s-36.571 16.374-36.571 36.571c0 20.198 16.374 36.571 36.571 36.571s36.571-16.374 36.571-36.571z" />
<glyph unicode="&#xe97d;" d="M475.429 813.714c0-20.198-16.374-36.571-36.571-36.571s-36.571 16.374-36.571 36.571c0 20.198 16.374 36.571 36.571 36.571s36.571-16.374 36.571-36.571z" />
<glyph unicode="&#xe97e;" d="M512 813.714c0-20.198-16.374-36.571-36.571-36.571s-36.571 16.374-36.571 36.571c0 20.198 16.374 36.571 36.571 36.571s36.571-16.374 36.571-36.571z" />
<glyph unicode="&#xe97f;" d="M548.571 813.714c0-20.198-16.374-36.571-36.571-36.571s-36.571 16.374-36.571 36.571c0 20.198 16.374 36.571 36.571 36.571s36.571-16.374 36.571-36.571z" />
<glyph unicode="&#xe980;" d="M585.143 813.714c0-20.198-16.374-36.571-36.571-36.571s-36.571 16.374-36.571 36.571c0 20.198 16.374 36.571 36.571 36.571s36.571-16.374 36.571-36.571z" />
<glyph unicode="&#xe981;" d="M621.714 813.714c0-20.198-16.374-36.571-36.571-36.571s-36.571 16.374-36.571 36.571c0 20.198 16.374 36.571 36.571 36.571s36.571-16.374 36.571-36.571z" />
<glyph unicode="&#xe982;" d="M658.286 813.714c0-20.198-16.374-36.571-36.571-36.571s-36.571 16.374-36.571 36.571c0 20.198 16.374 36.571 36.571 36.571s36.571-16.374 36.571-36.571z" />
<glyph unicode="&#xe983;" d="M694.857 813.714c0-20.198-16.374-36.571-36.571-36.571s-36.571 16.374-36.571 36.571c0 20.198 16.374 36.571 36.571 36.571s36.571-16.374 36.571-36.571z" />
<glyph unicode="&#xe984;" d="M731.429 813.714c0-20.198-16.374-36.571-36.571-36.571s-36.571 16.374-36.571 36.571c0 20.198 16.374 36.571 36.571 36.571s36.571-16.374 36.571-36.571z" />
<glyph unicode="&#xe985;" d="M768 813.714c0-20.198-16.374-36.571-36.571-36.571s-36.571 16.374-36.571 36.571c0 20.198 16.374 36.571 36.571 36.571s36.571-16.374 36.571-36.571z" />
<glyph unicode="&#xe986;" d="M804.571 813.714c0-20.198-16.374-36.571-36.571-36.571s-36.571 16.374-36.571 36.571c0 20.198 16.374 36.571 36.571 36.571s36.571-16.374 36.571-36.571z" />
<glyph unicode="&#xe987;" d="M841.143 813.714c0-20.198-16.374-36.571-36.571-36.571s-36.571 16.374-36.571 36.571c0 20.198 16.374 36.571 36.571 36.571s36.571-16.374 36.571-36.571z" />
<glyph unicode="&#xe988;" d="M877.714 813.714c0-20.198-16.374-36.571-36.571-36.571s-36.571 16.374-36.571 36.571c0 20.198 16.374 36.571 36.571 36.571s36.571-16.374 36.571-36.571z" />
<glyph unicode="&#xe989;" d="M914.286 813.714c0-20.198-16.374-36.571-36.571-36.571s-36.571 16.374-36.571 36.571c0 20.198 16.374 36.571 36.571 36.571s36.571-16.374 36.571-36.571z" />
<glyph unicode="&#xe98a;" d="M950.857 813.714c0-20.198-16.374-36.571-36.571-36.571s-36.571 16.374-36.571 36.571c0 20.198 16.374 36.571 36.571 36.571s36.571-16.374 36.571-36.571z" />
<glyph unicode="&#xe98b;" d="M987.429 813.714c0-20.198-16.374-36.571-36.571-36.571s-36.571 16.374-36.571 36.571c0 20.198 16.374 36.571 36.571 36.571s36.571-16.374 36.571-36.571z" />
<glyph unicode="&#xe98c;" d="M1024 813.714c0-20.198-16.374-36.571-36.571-36.571s-36.571 16.374-36.571 36.571c0 20.198 16.374 36.571 36.571 36.571s36.571-16.374 36.571-36.571z" />
<glyph unicode="&#xe98d;" d="M36.571 777.143c0-20.198-16.374-36.571-36.571-36.571s-36.571 16.374-36.571 36.571c0 20.198 16.374 36.571 36.571 36.571s36.571-16.374 36.571-36.571z" />
<glyph unicode="&#xe98e;" d="M73.143 777.143c0-20.198-16.374-36.571-36.571-36.571s-36.571 16.374-36.571 36.571c0 20.198 16.374 36.571 36.571 36.571s36.571-16.374 36.571-36.571z" />
<glyph unicode="&#xe98f;" d="M109.714 777.143c0-20.198-16.374-36.571-36.571-36.571s-36.571 16.374-36.571 36.571c0 20.198 16.374 36.571 36.571 36.571s36.571-16.374 36.571-36.571z" />
<glyph unicode="&#xe990;" d="M146.286 777.143c0-20.198-16.374-36.571-36.571-36.571s-36.571 16.374-36.571 36.571c0 20.198 16.374 36.571 36.571 36.571s36.571-16.374 36.571-36.571z" />
<glyph unicode="&#xe991;" d="M182.857 777.143c0-20.198-16.374-36.571-36.571-36.571s-36.571 16.374-36.571 36.571c0 20.198 16.374 36.571 36.571 36.571s36.571-16.374 36.571-36.571z" />
<glyph unicode="&#xe992;" d="M219.429 777.143c0-20.198-16.374-36.571-36.571-36.571s-36.571 16.374-36.571 36.571c0 20.198 16.374 36.571 36.571 36.571s36.571-16.374 36.571-36.571z" />
<glyph unicode="&#xe993;" d="M256 777.143c0-20.198-16.374-36.571-36.571-36.571s-36.571 16.374-36.571 36.571c0 20.198 16.374 36.571 36.571 36.571s36.571-16.374 36.571-36.571z" />
<glyph unicode="&#xe994;" d="M292.571 777.143c0-20.198-16.374-36.571-36.571-36.571s-36.571 16.374-36.571 36.571c0 20.198 16.374 36.571 36.571 36.571s36.571-16.374 36.571-36.571z" />
<glyph unicode="&#xe995;" d="M329.143 777.143c0-20.198-16.374-36.571-36.571-36.571s-36.571 16.374-36.571 36.571c0 20.198 16.374 36.571 36.571 36.571s36.571-16.374 36.571-36.571z" />
<glyph unicode="&#xe996;" d="M365.714 777.143c0-20.198-16.374-36.571-36.571-36.571s-36.571 16.374-36.571 36.571c0 20.198 16.374 36.571 36.571 36.571s36.571-16.374 36.571-36.571z" />
<glyph unicode="&#xe997;" d="M402.286 777.143c0-20.198-16.374-36.571-36.571-36.571s-36.571 16.374-36.571 36.571c0 20.198 16.374 36.571 36.571 36.571s36.571-16.374 36.571-36.571z" />
<glyph unicode="&#xe998;" d="M438.857 777.143c0-20.198-16.374-36.571-36.571-36.571s-36.571 16.374-36.571 36.571c0 20.198 16.374 36.571 36.571 36.571s36.571-16.374 36.571-36.571z" />
<glyph unicode="&#xe999;" d="M475.429 777.143c0-20.198-16.374-36.571-36.571-36.571s-36.571 16.374-36.571 36.571c0 20.198 16.374 36.571 36.571 36.571s36.571-16.374 36.571-36.571z" />
<glyph unicode="&#xe99a;" d="M512 777.143c0-20.198-16.374-36.571-36.571-36.571s-36.571 16.374-36.571 36.571c0 20.198 16.374 36.571 36.571 36.571s36.571-16.374 36.571-36.571z" />
<glyph unicode="&#xe99b;" d="M548.571 777.143c0-20.198-16.374-36.571-36.571-36.571s-36.571 16.374-36.571 36.571c0 20.198 16.374 36.571 36.571 36.571s36.571-16.374 36.571-36.571z" />
<glyph unicode="&#xe99c;" d="M585.143 777.143c0-20.198-16.374-36.571-36.571-36.571s-36.571 16.374-36.571 36.571c0 20.198 16.374 36.571 36.571 36.571s36.571-16.374 36.571-36.571z" />
<glyph unicode="&#xe99d;" d="M621.714 777.143c0-20.198-16.374-36.571-36.571-36.571s-36.571 16.374-36.571 36.571c0 20.198 16.374 36.571 36.571 36.571s36.571-16.374 36.571-36.571z" />
<glyph unicode="&#xe99e;" d="M658.286 777.143c0-20.198-16.374-36.571-36.571-36.571s-36.571 16.374-36.571 36.571c0 20.198 16.374 36.571 36.571 36.571s36.571-16.374 36.571-36.571z" />
<glyph unicode="&#xe99f;" d="M694.857 777.143c0-20.198-16.374-36.571-36.571-36.571s-36.571 16.374-36.571 36.571c0 20.198 16.374 36.571 36.571 36.571s36.571-16.374 36.571-36.571z" />
<glyph unicode="&#xe9a0;" d="M731.429 777.143c0-20.198-16.374-36.571-36.571-36.571s-36.571 16.374-36.571 36.571c0 20.198 16.374 36.571 36.571 36.571s36.571-16.374 36.571-36.571z" />
<glyph unicode="&#xe9a1;" d="M768 777.143c0-20.198-16.374-36.571-36.571-36.571s-36.571 16.374-36.571 36.571c0 20.198 16.374 36.571 36.571 36.571s36.571-16.374 36.571-36.571z" />
<glyph unicode="&#xe9a2;" d="M804.571 777.143c0-20.198-16.374-36.571-36.571-36.571s-36.571 16.374-36.571 36.571c0 20.198 16.374 36.571 36.571 36.571s36.571-16.374 36.571-36.571z" />
<glyph unicode="&#xe9a3;" d="M841.143 777.143c0-20.198-16.374-36.571-36.571-36.571s-36.571 16.374-36.571 36.571c0 20.198 16.374 36.571 36.571 36.571s36.571-16.374 36.571-36.571z" />
<glyph unicode="&#xe9a4;" d="M877.714 777.143c0-20.198-16.374-36.571-36.571-36.571s-36.571 16.374-36.571 36.571c0 20.198 16.374 36.571 36.571 36.571s36.571-16.374 36.571-36.571z" />
<glyph unicode="&#xe9a5;" d="M914.286 777.143c0-20.198-16.374-36.571-36.571-36.571s-36.571 16.374-36.571 36.571c0 20.198 16.374 36.571 36.571 36.571s36.571-16.374 36.571-36.571z" />
<glyph unicode="&#xe9a6;" d="M950.857 777.143c0-20.198-16.374-36.571-36.571-36.571s-36.571 16.374-36.571 36.571c0 20.198 16.374 36.571 36.571 36.571s36.571-16.374 36.571-36.571z" />
<glyph unicode="&#xe9a7;" d="M987.429 777.143c0-20.198-16.374-36.571-36.571-36.571s-36.571 16.374-36.571 36.571c0 20.198 16.374 36.571 36.571 36.571s36.571-16.374 36.571-36.571z" />
<glyph unicode="&#xe9a8;" d="M1024 777.143c0-20.198-16.374-36.571-36.571-36.571s-36.571 16.374-36.571 36.571c0 20.198 16.374 36.571 36.571 36.571s36.571-16.374 36.571-36.571z" />
<glyph unicode="&#xe9a9;" d="M36.571 740.571c0-20.198-16.374-36.571-36.571-36.571s-36.571 16.374-36.571 36.571c0 20.198 16.374 36.571 36.571 36.571s36.571-16.374 36.571-36.571z" />
<glyph unicode="&#xe9aa;" d="M73.143 740.571c0-20.198-16.374-36.571-36.571-36.571s-36.571 16.374-36.571 36.571c0 20.198 16.374 36.571 36.571 36.571s36.571-16.374 36.571-36.571z" />
<glyph unicode="&#xe9ab;" d="M109.714 740.571c0-20.198-16.374-36.571-36.571-36.571s-36.571 16.374-36.571 36.571c0 20.198 16.374 36.571 36.571 36.571s36.571-16.374 36.571-36.571z" />
<glyph unicode="&#xe9ac;" d="M146.286 740.571c0-20.198-16.374-36.571-36.571-36.571s-36.571 16.374-36.571 36.571c0 20.198 16.374 36.571 36.571 36.571s36.571-16.374 36.571-36.571z" />
<glyph unicode="&#xe9ad;" d="M182.857 740.571c0-20.198-16.374-36.571-36.571-36.571s-36.571 16.374-36.571 36.571c0 20.198 16.374 36.571 36.571 36.571s36.571-16.374 36.571-36.571z" />
<glyph unicode="&#xe9ae;" d="M219.429 740.571c0-20.198-16.374-36.571-36.571-36.571s-36.571 16.374-36.571 36.571c0 20.198 16.374 36.571 36.571 36.571s36.571-16.374 36.571-36.571z" />
<glyph unicode="&#xe9af;" d="M256 740.571c0-20.198-16.374-36.571-36.571-36.571s-36.571 16.374-36.571 36.571c0 20.198 16.374 36.571 36.571 36.571s36.571-16.374 36.571-36.571z" />
<glyph unicode="&#xe9b0;" d="M292.571 740.571c0-20.198-16.374-36.571-36.571-36.571s-36.571 16.374-36.571 36.571c0 20.198 16.374 36.571 36.571 36.571s36.571-16.374 36.571-36.571z" />
<glyph unicode="&#xe9b1;" d="M329.143 740.571c0-20.198-16.374-36.571-36.571-36.571s-36.571 16.374-36.571 36.571c0 20.198 16.374 36.571 36.571 36.571s36.571-16.374 36.571-36.571z" />
<glyph unicode="&#xe9b2;" d="M365.714 740.571c0-20.198-16.374-36.571-36.571-36.571s-36.571 16.374-36.571 36.571c0 20.198 16.374 36.571 36.571 36.571s36.571-16.374 36.571-36.571z" />
<glyph unicode="&#xe9b3;" d="M402.286 740.571c0-20.198-16.374-36.571-36.571-36.571s-36.571 16.374-36.571 36.571c0 20.198 16.374 36.571 36.571 36.571s36.571-16.374 36.571-36.571z" />
<glyph unicode="&#xe9b4;" d="M438.857 740.571c0-20.198-16.374-36.571-36.571-36.571s-36.571 16.374-36.571 36.571c0 20.198 16.374 36.571 36.571 36.571s36.571-16.374 36.571-36.571z" />
<glyph unicode="&#xe9b5;" d="M475.429 740.571c0-20.198-16.374-36.571-36.571-36.571s-36.571 16.374-36.571 36.571c0 20.198 16.374 36.571 36.571 36.571s36.571-16.374 36.571-36.571z" />
<glyph unicode="&#xe9b6;" d="M512 740.571c0-20.198-16.374-36.571-36.571-36.571s-36.571 16.374-36.571 36.571c0 20.198 16.374 36.571 36.571 36.571s36.571-16.374 36.571-36.571z" />
<glyph unicode="&#xe9b7;" d="M548.571 740.571c0-20.198-16.374-36.571-36.571-36.571s-36.571 16.374-36.571 36.571c0 20.198 16.374 36.571 36.571 36.571s36.571-16.374 36.571-36.571z" />
<glyph unicode="&#xe9b8;" d="M585.143 740.571c0-20.198-16.374-36.571-36.571-36.571s-36.571 16.374-36.571 36.571c0 20.198 16.374 36.571 36.571 36.571s36.571-16.374 36.571-36.571z" />
<glyph unicode="&#xe9b9;" d="M621.714 740.571c0-20.198-16.374-36.571-36.571-36.571s-36.571 16.374-36.571 36.571c0 20.198 16.374 36.571 36.571 36.571s36.571-16.374 36.571-36.571z" />
<glyph unicode="&#xe9ba;" d="M658.286 740.571c0-20.198-16.374-36.571-36.571-36.571s-36.571 16.374-36.571 36.571c0 20.198 16.374 36.571 36.571 36.571s36.571-16.374 36.571-36.571z" />
<glyph unicode="&#xe9bb;" d="M694.857 740.571c0-20.198-16.374-36.571-36.571-36.571s-36.571 16.374-36.571 36.571c0 20.198 16.374 36.571 36.571 36.571s36.571-16.374 36.571-36.571z" />
<glyph unicode="&#xe9bc;" d="M731.429 740.571c0-20.198-16.374-36.571-36.571-36.571s-36.571 16.374-36.571 36.571c0 20.198 16.374 36.571 36.571 36.571s36.571-16.374 36.571-36.571z" />
<glyph unicode="&#xe9bd;" d="M768 740.571c0-20.198-16.374-36.571-36.571-36.571s-36.571 16.374-36.571 36.571c0 20.198 16.374 36.571 36.571 36.571s36.571-16.374 36.571-36.571z" />
<glyph unicode="&#xe9be;" d="M804.571 740.571c0-20.198-16.374-36.571-36.571-36.571s-36.571 16.374-36.571 36.571c0 20.198 16.374 36.571 36.571 36.571s36.571-16.374 36.571-36.571z" />
<glyph unicode="&#xe9bf;" d="M841.143 740.571c0-20.198-16.374-36.571-36.571-36.571s-36.571 16.374-36.571 36.571c0 20.198 16.374 36.571 36.571 36.571s36.571-16.374 36.571-36.571z" />
<glyph unicode="&#xe9c0;" d="M877.714 740.571c0-20.198-16.374-36.571-36.571-36.571s-36.571 16.374-36.571 36.571c0 20.198 16.374 36.571 36.571 36.571s36.571-16.374 36.571-36.571z" />
<glyph unicode="&#xe9c1;" d="M914.286 740.571c0-20.198-16.374-36.571-36.571-36.571s-36.571 16.374-36.571 36.571c0 20.198 16.374 36.571 36.571 36.571s36.571-16.374 36.571-36.571z" />
<glyph unicode="&#xe9c2;" d="M950.857 740.571c0-20.198-16.374-36.571-36.571-36.571s-36.571 16.374-36.571 36.571c0 20.198 16.374 36.571 36.571 36.571s36.571-16.374 36.571-36.571z" />
<glyph unicode="&#xe9c3;" d="M987.429 740.571c0-20.198-16.374-36.571-36.571-36.571s-36.571 16.374-36.571 36.571c0 20.198 16.374 36.571 36.571 36.571s36.571-16.374 36.571-36.571z" />
<glyph unicode="&#xe9c4;" d="M1024 740.571c0-20.198-16.374-36.571-36.571-36.571s-36.571 16.374-36.571 36.571c0 20.198 16.374 36.571 36.571 36.571s36.571-16.374 36.571-36.571z" />
<glyph unicode="&#xe9c5;" d="M36.571 704c0-20.198-16.374-36.571-36.571-36.571s-36.571 16.374-36.571 36.571c0 20.198 16.374 36.571 36.571 36.571s36.571-16.374 36.571-36.571z" />
<glyph unicode="&#xe9c6;" d="M73.143 704c0-20.198-16.374-36.571-36.571-36.571s-36.571 16.374-36.571 36.571c0 20.198 16.374 36.571 36.571 36.571s36.571-16.374 36.571-36.571z" />
<glyph unicode="&#xe9c7;" d="M109.714 704c0-20.198-16.374-36.571-36.571-36.571s-36.571 16.374-36.571 36.571c0 20.198 16.374 36.571 36.571 36.571s36.571-16.374 36.571-36.571z" />
<glyph unicode="&#xe9c8;" d="M146.286 704c0-20.198-16.374-36.571-36.571-36.571s-36.571 16.374-36.571 36.571c0 20.198 16.374 36.571 36.571 36.571s36.571-16.374 36.571-36.571z" />
<glyph unicode="&#xe9c9;" d="M182.857 704c0-20.198-16.374-36.571-36.571-36.571s-36.571 16.374-36.571 36.571c0 20.198 16.374 36.571 36.571 36.571s36.571-16.374 36.571-36.571z" />
<glyph unicode="&#xe9ca;" d="M219.429 704c0-20.198-16.374-36.571-36.571-36.571s-36.571 16.374-36.571 36.571c0 20.198 16.374 36.571 36.571 36.571s36.571-16.374 36.571-36.571z" />
<glyph unicode="&#xe9cb;" d="M256 704c0-20.198-16.374-36.571-36.571-36.571s-36.571 16.374-36.571 36.571c0 20.198 16.374 36.571 36.571 36.571s36.571-16.374 36.571-36.571z" />
<glyph unicode="&#xe9cc;" d="M292.571 704c0-20.198-16.374-36.571-36.571-36.571s-36.571 16.374-36.571 36.571c0 20.198 16.374 36.571 36.571 36.571s36.571-16.374 36.571-36.571z" />
<glyph unicode="&#xe9cd;" d="M329.143 704c0-20.198-16.374-36.571-36.571-36.571s-36.571 16.374-36.571 36.571c0 20.198 16.374 36.571 36.571 36.571s36.571-16.374 36.571-36.571z" />
<glyph unicode="&#xe9ce;" d="M365.714 704c0-20.198-16.374-36.571-36.571-36.571s-36.571 16.374-36.571 36.571c0 20.198 16.374 36.571 36.571 36.571s36.571-16.374 36.571-36.571z" />
<glyph unicode="&#xe9cf;" d="M402.286 704c0-20.198-16.374-36.571-36.571-36.571s-36.571 16.374-36.571 36.571c0 20.198 16.374 36.571 36.571 36.571s36.571-16.374 36.571-36.571z" />
<glyph unicode="&#xe9d0;" d="M438.857 704c0-20.198-16.374-36.571-36.571-36.571s-36.571 16.374-36.571 36.571c0 20.198 16.374 36.571 36.571 36.571s36.571-16.374 36.571-36.571z" />
<glyph unicode="&#xe9d1;" d="M475.429 704c0-20.198-16.374-36.571-36.571-36.571s-36.571 16.374-36.571 36.571c0 20.198 16.374 36.571 36.571 36.571s36.571-16.374 36.571-36.571z" />
<glyph unicode="&#xe9d2;" d="M512 704c0-20.198-16.374-36.571-36.571-36.571s-36.571 16.374-36.571 36.571c0 20.198 16.374 36.571 36.571 36.571s36.571-16.374 36.571-36.571z" />
<glyph unicode="&#xe9d3;" d="M548.571 704c0-20.198-16.374-36.571-36.571-36.571s-36.571 16.374-36.571 36.571c0 20.198 16.374 36.571 36.571 36.571s36.571-16.374 36.571-36.571z" />
<glyph unicode="&#xe9d4;" d="M585.143 704c0-20.198-16.374-36.571-36.571-36.571s-36.571 16.374-36.571 36.571c0 20.198 16.374 36.571 36.571 36.571s36.571-16.374 36.571-36.571z" />
<glyph unicode="&#xe9d5;" d="M621.714 704c0-20.198-16.374-36.571-36.571-36.571s-36.571 16.374-36.571 36.571c0 20.198 16.374 36.571 36.571 36.571s36.571-16.374 36.571-36.571z" />
<glyph unicode="&#xe9d6;" d="M658.286 704c0-20.198-16.374-36.571-36.571-36.571s-36.571 16.374-36.571 36.571c0 20.198 16.374 36.571 36.571 36.571s36.571-16.374 36.571-36.571z" />
<glyph unicode="&#xe9d7;" d="M694.857 704c0-20.198-16.374-36.571-36.571-36.571s-36.571 16.374-36.571 36.571c0 20.198 16.374 36.571 36.571 36.571s36.571-16.374 36.571-36.571z" />
<glyph unicode="&#xe9d8;" d="M731.429 704c0-20.198-16.374-36.571-36.571-36.571s-36.571 16.374-36.571 36.571c0 20.198 16.374 36.571 36.571 36.571s36.571-16.374 36.571-36.571z" />
<glyph unicode="&#xe9d9;" d="M768 704c0-20.198-16.374-36.571-36.571-36.571s-36.571 16.374-36.571 36.571c0 20.198 16.374 36.571 36.571 36.571s36.571-16.374 36.571-36.571z" />
<glyph unicode="&#xe9da;" d="M804.571 704c0-20.198-16.374-36.571-36.571-36.571s-36.571 16.374-36.571 36.571c0 20.198 16.374 36.571 36.571 36.571s36.571-16.374 36.571-36.571z" />
<glyph unicode="&#xe9db;" d="M841.143 704c0-20.198-16.374-36.571-36.571-36.571s-36.571 16.374-36.571 36.571c0 20.198 16.374 36.571 36.571 36.571s36.571-16.374 36.571-36.571z" />
<glyph unicode="&#xe9dc;" d="M877.714 704c0-20.198-16.374-36.571-36.571-36.571s-36.571 16.374-36.571 36.571c0 20.198 16.374 36.571 36.571 36.571s36.571-16.374 36.571-36.571z" />
<glyph unicode="&#xe9dd;" d="M914.286 704c0-20.198-16.374-36.571-36.571-36.571s-36.571 16.374-36.571 36.571c0 20.198 16.374 36.571 36.571 36.571s36.571-16.374 36.571-36.571z" />
<glyph unicode="&#xe9de;" d="M950.857 704c0-20.198-16.374-36.571-36.571-36.571s-36.571 16.374-36.571 36.571c0 20.198 16.374 36.571 36.571 36.571s36.571-16.374 36.571-36.571z" />
<glyph unicode="&#xe9df;" d="M987.429 704c0-20.198-16.374-36.571-36.571-36.571s-36.571 16.374-36.571 36.571c0 20.198 16.374 36.571 36.571 36.571s36.571-16.374 36.571-36.571z" />
<glyph unicode="&#xe9e0;" d="M1024 704c0-20.198-16.374-36.571-36.571-36.571s-36.571 16.374-36.571 36.571c0 20.198 16.374 36.571 36.571 36.571s36.571-16.374 36.571-36.571z" />
<glyph unicode="&#xe9e1;" d="M36.571 667.429c0-20.198-16.374-36.571-36.571-36.571s-36.571 16.374-36.571 36.571c0 20.198 16.374 36.571 36.571 36.571s36.571-16.374 36.571-36.571z" />
<glyph unicode="&#xe9e2;" d="M73.143 667.429c0-20.198-16.374-36.571-36.571-36.571s-36.571 16.374-36.571 36.571c0 20.198 16.374 36.571 36.571 36.571s36.571-16.374 36.571-36.571z" />
<glyph unicode="&#xe9e3;" d="M109.714 667.429c0-20.198-16.374-36.571-36.571-36.571s-36.571 16.374-36.571 36.571c0 20.198 16.374 36.571 36.571 36.571s36.571-16.374 36.571-36.571z" />
<glyph unicode="&#xe9e4;" d="M146.286 667.429c0-20.198-16.374-36.571-36.571-36.571s-36.571 16.374-36.571 36.571c0 20.198 16.374 36.571 36.571 36.571s36.571-16.374 36.571-36.571z" />
<glyph unicode="&#xe9e5;" d="M182.857 667.429c0-20.198-16.374-36.571-36.571-36.571s-36.571 16.374-36.571 36.571c0 20.198 16.374 36.571 36.571 36.571s36.571-16.374 36.571-36.571z" />
<glyph unicode="&#xe9e6;" d="M219.429 667.429c0-20.198-16.374-36.571-36.571-36.571s-36.571 16.374-36.571 36.571c0 20.198 16.374 36.571 36.571 36.571s36.571-16.374 36.571-36.571z" />
<glyph unicode="&#xe9e7;" d="M256 667.429c0-20.198-16.374-36.571-36.571-36.571s-36.571 16.374-36.571 36.571c0 20.198 16.374 36.571 36.571 36.571s36.571-16.374 36.571-36.571z" />
<glyph unicode="&#xe9e8;" d="M292.571 667.429c0-20.198-16.374-36.571-36.571-36.571s-36.571 16.374-36.571 36.571c0 20.198 16.374 36.571 36.571 36.571s36.571-16.374 36.571-36.571z" />
<glyph unicode="&#xe9e9;" d="M329.143 667.429c0-20.198-16.374-36.571-36.571-36.571s-36.571 16.374-36.571 36.571c0 20.198 16.374 36.571 36.571 36.571s36.571-16.374 36.571-36.571z" />
<glyph unicode="&#xe9ea;" d="M365.714 667.429c0-20.198-16.374-36.571-36.571-36.571s-36.571 16.374-36.571 36.571c0 20.198 16.374 36.571 36.571 36.571s36.571-16.374 36.571-36.571z" />
<glyph unicode="&#xe9eb;" d="M402.286 667.429c0-20.198-16.374-36.571-36.571-36.571s-36.571 16.374-36.571 36.571c0 20.198 16.374 36.571 36.571 36.571s36.571-16.374 36.571-36.571z" />
<glyph unicode="&#xe9ec;" d="M438.857 667.429c0-20.198-16.374-36.571-36.571-36.571s-36.571 16.374-36.571 36.571c0 20.198 16.374 36.571 36.571 36.571s36.571-16.374 36.571-36.571z" />
<glyph unicode="&#xe9ed;" d="M475.429 667.429c0-20.198-16.374-36.571-36.571-36.571s-36.571 16.374-36.571 36.571c0 20.198 16.374 36.571 36.571 36.571s36.571-16.374 36.571-36.571z" />
<glyph unicode="&#xe9ee;" d="M512 667.429c0-20.198-16.374-36.571-36.571-36.571s-36.571 16.374-36.571 36.571c0 20.198 16.374 36.571 36.571 36.571s36.571-16.374 36.571-36.571z" />
<glyph unicode="&#xe9ef;" d="M548.571 667.429c0-20.198-16.374-36.571-36.571-36.571s-36.571 16.374-36.571 36.571c0 20.198 16.374 36.571 36.571 36.571s36.571-16.374 36.571-36.571z" />
<glyph unicode="&#xe9f0;" d="M585.143 667.429c0-20.198-16.374-36.571-36.571-36.571s-36.571 16.374-36.571 36.571c0 20.198 16.374 36.571 36.571 36.571s36.571-16.374 36.571-36.571z" />
<glyph unicode="&#xe9f1;" d="M621.714 667.429c0-20.198-16.374-36.571-36.571-36.571s-36.571 16.374-36.571 36.571c0 20.198 16.374 36.571 36.571 36.571s36.571-16.374 36.571-36.571z" />
<glyph unicode="&#xe9f2;" d="M658.286 667.429c0-20.198-16.374-36.571-36.571-36.571s-36.571 16.374-36.571 36.571c0 20.198 16.374 36.571 36.571 36.571s36.571-16.374 36.571-36.571z" />
<glyph unicode="&#xe9f3;" d="M694.857 667.429c0-20.198-16.374-36.571-36.571-36.571s-36.571 16.374-36.571 36.571c0 20.198 16.374 36.571 36.571 36.571s36.571-16.374 36.571-36.571z" />
<glyph unicode="&#xe9f4;" d="M731.429 667.429c0-20.198-16.374-36.571-36.571-36.571s-36.571 16.374-36.571 36.571c0 20.198 16.374 36.571 36.571 36.571s36.571-16.374 36.571-36.571z" />
<glyph unicode="&#xe9f5;" d="M768 667.429c0-20.198-16.374-36.571-36.571-36.571s-36.571 16.374-36.571 36.571c0 20.198 16.374 36.571 36.571 36.571s36.571-16.374 36.571-36.571z" />
<glyph unicode="&#xe9f6;" d="M804.571 667.429c0-20.198-16.374-36.571-36.571-36.571s-36.571 16.374-36.571 36.571c0 20.198 16.374 36.571 36.571 36.571s36.571-16.374 36.571-36.571z" />
<glyph unicode="&#xe9f7;" d="M841.143 667.429c0-20.198-16.374-36.571-36.571-36.571s-36.571 16.374-36.571 36.571c0 20.198 16.374 36.571 36.571 36.571s36.571-16.374 36.571-36.571z" />
<glyph unicode="&#xe9f8;" d="M877.714 667.429c0-20.198-16.374-36.571-36.571-36.571s-36.571 16.374-36.571 36.571c0 20.198 16.374 36.571 36.571 36.571s36.571-16.374 36.571-36.571z" />
<glyph unicode="&#xe9f9;" d="M914.286 667.429c0-20.198-16.374-36.571-36.571-36.571s-36.571 16.374-36.571 36.571c0 20.198 16.374 36.571 36.571 36.571s36.571-16.374 36.571-36.571z" />
<glyph unicode="&#xe9fa;" d="M950.857 667.429c0-20.198-16.374-36.571-36.571-36.571s-36.571 16.374-36.571 36.571c0 20.198 16.374 36.571 36.571 36.571s36.571-16.374 36.571-36.571z" />
<glyph unicode="&#xe9fb;" d="M987.429 667.429c0-20.198-16.374-36.571-36.571-36.571s-36.571 16.374-36.571 36.571c0 20.198 16.374 36.571 36.571 36.571s36.571-16.374 36.571-36.571z" />
<glyph unicode="&#xe9fc;" d="M1024 667.429c0-20.198-16.374-36.571-36.571-36.571s-36.571 16.374-36.571 36.571c0 20.198 16.374 36.571 36.571 36.571s36.571-16.374 36.571-36.571z" />
<glyph unicode="&#xe9fd;" d="M36.571 630.857c0-20.198-16.374-36.571-36.571-36.571s-36.571 16.374-36.571 36.571c0 20.198 16.374 36.571 36.571 36.571s36.571-16.374 36.571-36.571z" />
<glyph unicode="&#xe9fe;" d="M73.143 630.857c0-20.198-16.374-36.571-36.571-36.571s-36.571 16.374-36.571 36.571c0 20.198 16.374 36.571 36.571 36.571s36.571-16.374 36.571-36.571z" />
<glyph unicode="&#xe9ff;" d="M109.714 630.857c0-20.198-16.374-36.571-36.571-36.571s-36.571 16.374-36.571 36.571c0 20.198 16.374 36.571 36.571 36.571s36.571-16.374 36.571-36.571z" />
<glyph unicode="&#xea00;" d="M146.286 630.857c0-20.198-16.374-36.571-36.571-36.571s-36.571 16.374-36.571 36.571c0 20.198 16.374 36.571 36.571 36.571s36.571-16.374 36.571-36.571z" />
<glyph unicode="&#xea01;" d="M182.857 630.857c0-20.198-16.374-36.571-36.571-36.571s-36.571 16.374-36.571 36.571c0 20.198 16.374 36.571 36.571 36.571s36.571-16.374 36.571-36.571z" />
<glyph unicode="&#xea02;" d="M219.429 630.857c0-20.198-16.374-36.571-36.571-36.571s-36.571 16.374-36.571 36.571c0 20.198 16.374 36.571 36.571 36.571s36.571-16.374 36.571-36.571z" />
<glyph unicode="&#xea03;" d="M256 630.857c0-20.198-16.374-36.571-36.571-36.571s-36.571 16.374-36.571 36.571c0 20.198 16.374 36.571 36.571 36.571s36.571-16.374 36.571-36.571z" />
<glyph unicode="&#xea04;" d="M292.571 630.857c0-20.198-16.374-36.571-36.571-36.571s-36.571 16.374-36.571 36.571c0 20.198 16.374 36.571 36.571 36.571s36.571-16.374 36.571-36.571z" />
<glyph unicode="&#xea05;" d="M329.143 630.857c0-20.198-16.374-36.571-36.571-36.571s-36.571 16.374-36.571 36.571c0 20.198 16.374 36.571 36.571 36.571s36.571-16.374 36.571-36.571z" />
<glyph unicode="&#xea06;" d="M365.714 630.857c0-20.198-16.374-36.571-36.571-36.571s-36.571 16.374-36.571 36.571c0 20.198 16.374 36.571 36.571 36.571s36.571-16.374 36.571-36.571z" />
<glyph unicode="&#xea07;" d="M402.286 630.857c0-20.198-16.374-36.571-36.571-36.571s-36.571 16.374-36.571 36.571c0 20.198 16.374 36.571 36.571 36.571s36.571-16.374 36.571-36.571z" />
<glyph unicode="&#xea08;" d="M438.857 630.857c0-20.198-16.374-36.571-36.571-36.571s-36.571 16.374-36.571 36.571c0 20.198 16.374 36.571 36.571 36.571s36.571-16.374 36.571-36.571z" />
<glyph unicode="&#xea09;" d="M475.429 630.857c0-20.198-16.374-36.571-36.571-36.571s-36.571 16.374-36.571 36.571c0 20.198 16.374 36.571 36.571 36.571s36.571-16.374 36.571-36.571z" />
<glyph unicode="&#xea0a;" d="M512 630.857c0-20.198-16.374-36.571-36.571-36.571s-36.571 16.374-36.571 36.571c0 20.198 16.374 36.571 36.571 36.571s36.571-16.374 36.571-36.571z" />
<glyph unicode="&#xea0b;" d="M548.571 630.857c0-20.198-16.374-36.571-36.571-36.571s-36.571 16.374-36.571 36.571c0 20.198 16.374 36.571 36.571 36.571s36.571-16.374 36.571-36.571z" />
<glyph unicode="&#xea0c;" d="M585.143 630.857c0-20.198-16.374-36.571-36.571-36.571s-36.571 16.374-36.571 36.571c0 20.198 16.374 36.571 36.571 36.571s36.571-16.374 36.571-36.571z" />
<glyph unicode="&#xea0d;" d="M621.714 630.857c0-20.198-16.374-36.571-36.571-36.571s-36.571 16.374-36.571 36.571c0 20.198 16.374 36.571 36.571 36.571s36.571-16.374 36.571-36.571z" />
<glyph unicode="&#xea0e;" d="M658.286 630.857c0-20.198-16.374-36.571-36.571-36.571s-36.571 16.374-36.571 36.571c0 20.198 16.374 36.571 36.571 36.571s36.571-16.374 36.571-36.571z" />
<glyph unicode="&#xea0f;" d="M694.857 630.857c0-20.198-16.374-36.571-36.571-36.571s-36.571 16.374-36.571 36.571c0 20.198 16.374 36.571 36.571 36.571s36.571-16.374 36.571-36.571z" />
<glyph unicode="&#xea10;" d="M731.429 630.857c0-20.198-16.374-36.571-36.571-36.571s-36.571 16.374-36.571 36.571c0 20.198 16.374 36.571 36.571 36.571s36.571-16.374 36.571-36.571z" />
<glyph unicode="&#xea11;" d="M768 630.857c0-20.198-16.374-36.571-36.571-36.571s-36.571 16.374-36.571 36.571c0 20.198 16.374 36.571 36.571 36.571s36.571-16.374 36.571-36.571z" />
<glyph unicode="&#xea12;" d="M804.571 630.857c0-20.198-16.374-36.571-36.571-36.571s-36.571 16.374-36.571 36.571c0 20.198 16.374 36.571 36.571 36.571s36.571-16.374 36.571-36.571z" />
<glyph unicode="&#xea13;" d="M841.143 630.857c0-20.198-16.374-36.571-36.571-36.571s-36.571 16.374-36.571 36.571c0 20.198 16.374 36.571 36.571 36.571s36.571-16.374 36.571-36.571z" />
<glyph unicode="&#xea14;" d="M877.714 630.857c0-20.198-16.374-36.571-36.571-36.571s-36.571 16.374-36.571 36.571c0 20.198 16.374 36.571 36.571 36.571s36.571-16.374 36.571-36.571z" />
<glyph unicode="&#xea15;" d="M914.286 630.857c0-20.198-16.374-36.571-36.571-36.571s-36.571 16.374-36.571 36.571c0 20.198 16.374 36.571 36.571 36.571s36.571-16.374 36.571-36.571z" />
<glyph unicode="&#xea16;" d="M950.857 630.857c0-20.198-16.374-36.571-36.571-36.571s-36.571 16.374-36.571 36.571c0 20.198 16.374 36.571 36.571 36.571s36.571-16.374 36.571-36.571z" />
<glyph unicode="&#xea17;" d="M987.429 630.857c0-20.198-16.374-36.571-36.571-36.571s-36.571 16.374-36.571 36.571c0 20.198 16.374 36.571 36.571 36.571s36.571-16.374 36.571-36.571z" />
<glyph unicode="&#xea18;" d="M1024 630.857c0-20.198-16.374-36.571-36.571-36.571s-36.571 16.374-36.571 36.571c0 20.198 16.374 36.571 36.571 36.571s36.571-16.374 36.571-36.571z" />
<glyph unicode="&#xea19;" d="M36.571 594.286c0-20.198-16.374-36.571-36.571-36.571s-36.571 16.374-36.571 36.571c0 20.198 16.374 36.571 36.571 36.571s36.571-16.374 36.571-36.571z" />
<glyph unicode="&#xea1a;" d="M73.143 594.286c0-20.198-16.374-36.571-36.571-36.571s-36.571 16.374-36.571 36.571c0 20.198 16.374 36.571 36.571 36.571s36.571-16.374 36.571-36.571z" />
<glyph unicode="&#xea1b;" d="M109.714 594.286c0-20.198-16.374-36.571-36.571-36.571s-36.571 16.374-36.571 36.571c0 20.198 16.374 36.571 36.571 36.571s36.571-16.374 36.571-36.571z" />
<glyph unicode="&#xea1c;" d="M146.286 594.286c0-20.198-16.374-36.571-36.571-36.571s-36.571 16.374-36.571 36.571c0 20.198 16.374 36.571 36.571 36.571s36.571-16.374 36.571-36.571z" />
<glyph unicode="&#xea1d;" d="M182.857 594.286c0-20.198-16.374-36.571-36.571-36.571s-36.571 16.374-36.571 36.571c0 20.198 16.374 36.571 36.571 36.571s36.571-16.374 36.571-36.571z" />
<glyph unicode="&#xea1e;" d="M219.429 594.286c0-20.198-16.374-36.571-36.571-36.571s-36.571 16.374-36.571 36.571c0 20.198 16.374 36.571 36.571 36.571s36.571-16.374 36.571-36.571z" />
<glyph unicode="&#xea1f;" d="M256 594.286c0-20.198-16.374-36.571-36.571-36.571s-36.571 16.374-36.571 36.571c0 20.198 16.374 36.571 36.571 36.571s36.571-16.374 36.571-36.571z" />
<glyph unicode="&#xea20;" d="M292.571 594.286c0-20.198-16.374-36.571-36.571-36.571s-36.571 16.374-36.571 36.571c0 20.198 16.374 36.571 36.571 36.571s36.571-16.374 36.571-36.571z" />
<glyph unicode="&#xea21;" d="M329.143 594.286c0-20.198-16.374-36.571-36.571-36.571s-36.571 16.374-36.571 36.571c0 20.198 16.374 36.571 36.571 36.571s36.571-16.374 36.571-36.571z" />
<glyph unicode="&#xea22;" d="M365.714 594.286c0-20.198-16.374-36.571-36.571-36.571s-36.571 16.374-36.571 36.571c0 20.198 16.374 36.571 36.571 36.571s36.571-16.374 36.571-36.571z" />
<glyph unicode="&#xea23;" d="M402.286 594.286c0-20.198-16.374-36.571-36.571-36.571s-36.571 16.374-36.571 36.571c0 20.198 16.374 36.571 36.571 36.571s36.571-16.374 36.571-36.571z" />
<glyph unicode="&#xea24;" d="M438.857 594.286c0-20.198-16.374-36.571-36.571-36.571s-36.571 16.374-36.571 36.571c0 20.198 16.374 36.571 36.571 36.571s36.571-16.374 36.571-36.571z" />
<glyph unicode="&#xea25;" d="M475.429 594.286c0-20.198-16.374-36.571-36.571-36.571s-36.571 16.374-36.571 36.571c0 20.198 16.374 36.571 36.571 36.571s36.571-16.374 36.571-36.571z" />
<glyph unicode="&#xea26;" d="M512 594.286c0-20.198-16.374-36.571-36.571-36.571s-36.571 16.374-36.571 36.571c0 20.198 16.374 36.571 36.571 36.571s36.571-16.374 36.571-36.571z" />
<glyph unicode="&#xea27;" d="M548.571 594.286c0-20.198-16.374-36.571-36.571-36.571s-36.571 16.374-36.571 36.571c0 20.198 16.374 36.571 36.571 36.571s36.571-16.374 36.571-36.571z" />
<glyph unicode="&#xea28;" d="M585.143 594.286c0-20.198-16.374-36.571-36.571-36.571s-36.571 16.374-36.571 36.571c0 20.198 16.374 36.571 36.571 36.571s36.571-16.374 36.571-36.571z" />
<glyph unicode="&#xea29;" d="M621.714 594.286c0-20.198-16.374-36.571-36.571-36.571s-36.571 16.374-36.571 36.571c0 20.198 16.374 36.571 36.571 36.571s36.571-16.374 36.571-36.571z" />
<glyph unicode="&#xea2a;" d="M658.286 594.286c0-20.198-16.374-36.571-36.571-36.571s-36.571 16.374-36.571 36.571c0 20.198 16.374 36.571 36.571 36.571s36.571-16.374 36.571-36.571z" />
<glyph unicode="&#xea2b;" d="M694.857 594.286c0-20.198-16.374-36.571-36.571-36.571s-36.571 16.374-36.571 36.571c0 20.198 16.374 36.571 36.571 36.571s36.571-16.374 36.571-36.571z" />
<glyph unicode="&#xea2c;" d="M731.429 594.286c0-20.198-16.374-36.571-36.571-36.571s-36.571 16.374-36.571 36.571c0 20.198 16.374 36.571 36.571 36.571s36.571-16.374 36.571-36.571z" />
</font>
</defs>
</svg>
